<mxfile host="app.diagrams.net" modified="2024-05-28T18:47:14.329Z" agent="Mozilla/5.0 (Windows NT 10.0; Win64; x64; rv:123.0) Gecko/20100101 Firefox/123.0" etag="6xZbcp3BLwhfyXksoeHo" version="24.4.9" type="github" pages="11">
  <diagram id="Y2eHXceLO5q77IRkCuiS" name="Main Existing Process ">
    <mxGraphModel dx="3558" dy="1232" grid="1" gridSize="10" guides="1" tooltips="1" connect="1" arrows="1" fold="1" page="1" pageScale="1" pageWidth="850" pageHeight="1100" math="0" shadow="0">
      <root>
        <mxCell id="0" />
        <mxCell id="1" parent="0" />
        <mxCell id="KXdZDJxWf1U4n6GN-KbS-6" style="edgeStyle=orthogonalEdgeStyle;rounded=0;orthogonalLoop=1;jettySize=auto;html=1;entryX=1;entryY=0.5;entryDx=0;entryDy=0;" edge="1" parent="1" source="qD1_NeZL-5RZQpypjOxz-1" target="qD1_NeZL-5RZQpypjOxz-4">
          <mxGeometry relative="1" as="geometry" />
        </mxCell>
        <mxCell id="Uth2_NFcaI5KKnc-upX_-1" value="&lt;div&gt;Registered New&amp;nbsp;&lt;/div&gt;&lt;div&gt;Member Info&lt;/div&gt;" style="edgeLabel;html=1;align=center;verticalAlign=middle;resizable=0;points=[];" vertex="1" connectable="0" parent="KXdZDJxWf1U4n6GN-KbS-6">
          <mxGeometry x="0.1451" y="4" relative="1" as="geometry">
            <mxPoint x="10" y="-4" as="offset" />
          </mxGeometry>
        </mxCell>
        <mxCell id="qD1_NeZL-5RZQpypjOxz-1" value="1.0" style="swimlane;fontStyle=0;childLayout=stackLayout;horizontal=1;startSize=26;fillColor=none;horizontalStack=0;resizeParent=1;resizeParentMax=0;resizeLast=0;collapsible=1;marginBottom=0;whiteSpace=wrap;html=1;rounded=1;" vertex="1" parent="1">
          <mxGeometry x="392" y="400" width="140" height="90" as="geometry" />
        </mxCell>
        <mxCell id="qD1_NeZL-5RZQpypjOxz-2" value="Member &lt;br&gt;Registration" style="text;strokeColor=none;fillColor=none;align=center;verticalAlign=top;spacingLeft=4;spacingRight=4;overflow=hidden;rotatable=0;points=[[0,0.5],[1,0.5]];portConstraint=eastwest;whiteSpace=wrap;html=1;" vertex="1" parent="qD1_NeZL-5RZQpypjOxz-1">
          <mxGeometry y="26" width="140" height="64" as="geometry" />
        </mxCell>
        <mxCell id="Uth2_NFcaI5KKnc-upX_-2" style="edgeStyle=orthogonalEdgeStyle;rounded=0;orthogonalLoop=1;jettySize=auto;html=1;entryX=1;entryY=0.5;entryDx=0;entryDy=0;exitX=0.01;exitY=0.754;exitDx=0;exitDy=0;exitPerimeter=0;" edge="1" parent="1">
          <mxGeometry relative="1" as="geometry">
            <mxPoint x="-27.90000000000009" y="470.24" as="sourcePoint" />
            <mxPoint x="-184" y="470" as="targetPoint" />
            <Array as="points">
              <mxPoint x="-81" y="470" />
            </Array>
          </mxGeometry>
        </mxCell>
        <mxCell id="Uth2_NFcaI5KKnc-upX_-3" value="&lt;div&gt;Recorded New &lt;br&gt;&lt;/div&gt;&lt;div&gt;Member&lt;br&gt;&lt;/div&gt;" style="edgeLabel;html=1;align=center;verticalAlign=middle;resizable=0;points=[];" vertex="1" connectable="0" parent="Uth2_NFcaI5KKnc-upX_-2">
          <mxGeometry x="0.066" relative="1" as="geometry">
            <mxPoint as="offset" />
          </mxGeometry>
        </mxCell>
        <mxCell id="Uth2_NFcaI5KKnc-upX_-5" value="&lt;div&gt;Membership Credential&lt;br&gt;&lt;/div&gt;" style="edgeStyle=orthogonalEdgeStyle;rounded=0;orthogonalLoop=1;jettySize=auto;html=1;entryX=0.001;entryY=0.845;entryDx=0;entryDy=0;entryPerimeter=0;" edge="1" parent="1" source="qD1_NeZL-5RZQpypjOxz-4" target="KXdZDJxWf1U4n6GN-KbS-2">
          <mxGeometry x="0.2952" y="-1" relative="1" as="geometry">
            <Array as="points">
              <mxPoint x="70" y="270" />
              <mxPoint x="318" y="270" />
            </Array>
            <mxPoint as="offset" />
          </mxGeometry>
        </mxCell>
        <mxCell id="_ScF7VTh0HtPhi7bIy_M-9" value="Daily Attendance Record" style="edgeStyle=orthogonalEdgeStyle;rounded=0;orthogonalLoop=1;jettySize=auto;html=1;entryX=0.96;entryY=0.118;entryDx=0;entryDy=0;entryPerimeter=0;" edge="1" parent="1">
          <mxGeometry relative="1" as="geometry">
            <mxPoint x="-19" y="445" as="sourcePoint" />
            <mxPoint x="-183" y="445.01200000000006" as="targetPoint" />
            <Array as="points" />
          </mxGeometry>
        </mxCell>
        <mxCell id="eKysZPO74eqPrIm3fnb9-1" value="&lt;div&gt;Registered&lt;/div&gt;&lt;div&gt;Compiled&amp;nbsp;&lt;/div&gt;&lt;div&gt;Documents&lt;/div&gt;" style="edgeStyle=orthogonalEdgeStyle;rounded=0;orthogonalLoop=1;jettySize=auto;html=1;exitX=0.75;exitY=1;exitDx=0;exitDy=0;" edge="1" parent="1" source="qD1_NeZL-5RZQpypjOxz-4" target="qD1_NeZL-5RZQpypjOxz-8">
          <mxGeometry x="-0.2923" relative="1" as="geometry">
            <mxPoint as="offset" />
          </mxGeometry>
        </mxCell>
        <mxCell id="ate-xKjjSHt2ne3AMyED-4" value="&lt;div&gt;Equipment &lt;br&gt;&lt;/div&gt;&lt;div&gt;Information&lt;br&gt;&lt;/div&gt;" style="edgeStyle=orthogonalEdgeStyle;rounded=0;orthogonalLoop=1;jettySize=auto;html=1;exitX=0.25;exitY=1;exitDx=0;exitDy=0;entryX=0.5;entryY=0;entryDx=0;entryDy=0;" edge="1" parent="1" source="qD1_NeZL-5RZQpypjOxz-4" target="qD1_NeZL-5RZQpypjOxz-15">
          <mxGeometry relative="1" as="geometry" />
        </mxCell>
        <mxCell id="qD1_NeZL-5RZQpypjOxz-4" value="Admin" style="rounded=0;whiteSpace=wrap;html=1;" vertex="1" parent="1">
          <mxGeometry x="-30" y="415" width="210" height="60" as="geometry" />
        </mxCell>
        <mxCell id="Uth2_NFcaI5KKnc-upX_-8" value="Reciept" style="edgeStyle=orthogonalEdgeStyle;rounded=0;orthogonalLoop=1;jettySize=auto;html=1;entryX=0.997;entryY=0.836;entryDx=0;entryDy=0;entryPerimeter=0;" edge="1" parent="1" source="qD1_NeZL-5RZQpypjOxz-5" target="KXdZDJxWf1U4n6GN-KbS-2">
          <mxGeometry x="-0.3878" relative="1" as="geometry">
            <Array as="points">
              <mxPoint x="620" y="270" />
            </Array>
            <mxPoint as="offset" />
          </mxGeometry>
        </mxCell>
        <mxCell id="qD1_NeZL-5RZQpypjOxz-5" value="3.0" style="swimlane;fontStyle=0;childLayout=stackLayout;horizontal=1;startSize=26;fillColor=none;horizontalStack=0;resizeParent=1;resizeParentMax=0;resizeLast=0;collapsible=1;marginBottom=0;whiteSpace=wrap;html=1;rounded=1;" vertex="1" parent="1">
          <mxGeometry x="610" y="400" width="140" height="90" as="geometry" />
        </mxCell>
        <mxCell id="qD1_NeZL-5RZQpypjOxz-6" value="Payment" style="text;strokeColor=none;fillColor=none;align=center;verticalAlign=top;spacingLeft=4;spacingRight=4;overflow=hidden;rotatable=0;points=[[0,0.5],[1,0.5]];portConstraint=eastwest;whiteSpace=wrap;html=1;" vertex="1" parent="qD1_NeZL-5RZQpypjOxz-5">
          <mxGeometry y="26" width="140" height="64" as="geometry" />
        </mxCell>
        <mxCell id="qD1_NeZL-5RZQpypjOxz-7" value="4.0" style="swimlane;fontStyle=0;childLayout=stackLayout;horizontal=1;startSize=26;fillColor=none;horizontalStack=0;resizeParent=1;resizeParentMax=0;resizeLast=0;collapsible=1;marginBottom=0;whiteSpace=wrap;html=1;rounded=1;" vertex="1" parent="1">
          <mxGeometry x="263" y="550" width="140" height="90" as="geometry" />
        </mxCell>
        <mxCell id="qD1_NeZL-5RZQpypjOxz-8" value="Manual Store" style="text;strokeColor=none;fillColor=none;align=center;verticalAlign=top;spacingLeft=4;spacingRight=4;overflow=hidden;rotatable=0;points=[[0,0.5],[1,0.5]];portConstraint=eastwest;whiteSpace=wrap;html=1;" vertex="1" parent="qD1_NeZL-5RZQpypjOxz-7">
          <mxGeometry y="26" width="140" height="64" as="geometry" />
        </mxCell>
        <mxCell id="qD1_NeZL-5RZQpypjOxz-9" value="5.0" style="swimlane;fontStyle=0;childLayout=stackLayout;horizontal=1;startSize=26;fillColor=none;horizontalStack=0;resizeParent=1;resizeParentMax=0;resizeLast=0;collapsible=1;marginBottom=0;whiteSpace=wrap;html=1;rounded=1;" vertex="1" parent="1">
          <mxGeometry x="570" y="550" width="140" height="90" as="geometry" />
        </mxCell>
        <mxCell id="qD1_NeZL-5RZQpypjOxz-10" value="Manage Record" style="text;strokeColor=none;fillColor=none;align=center;verticalAlign=top;spacingLeft=4;spacingRight=4;overflow=hidden;rotatable=0;points=[[0,0.5],[1,0.5]];portConstraint=eastwest;whiteSpace=wrap;html=1;" vertex="1" parent="qD1_NeZL-5RZQpypjOxz-9">
          <mxGeometry y="26" width="140" height="64" as="geometry" />
        </mxCell>
        <mxCell id="FNH2PhTzVs-gwj8La_SQ-2" value="&lt;div&gt;Coach Unique&amp;nbsp;&lt;/div&gt;&lt;div&gt;Credential&lt;/div&gt;" style="edgeStyle=orthogonalEdgeStyle;rounded=0;orthogonalLoop=1;jettySize=auto;html=1;entryX=0.5;entryY=1;entryDx=0;entryDy=0;" edge="1" parent="1" source="qD1_NeZL-5RZQpypjOxz-11" target="KXdZDJxWf1U4n6GN-KbS-1">
          <mxGeometry relative="1" as="geometry" />
        </mxCell>
        <mxCell id="FNH2PhTzVs-gwj8La_SQ-7" value="&lt;div&gt;Coach &lt;br&gt;&lt;/div&gt;&lt;div&gt;Info&lt;br&gt;&lt;/div&gt;" style="edgeStyle=orthogonalEdgeStyle;rounded=0;orthogonalLoop=1;jettySize=auto;html=1;" edge="1" parent="1" source="qD1_NeZL-5RZQpypjOxz-11" target="FNH2PhTzVs-gwj8La_SQ-3">
          <mxGeometry relative="1" as="geometry">
            <Array as="points">
              <mxPoint x="-280" y="315" />
            </Array>
          </mxGeometry>
        </mxCell>
        <mxCell id="qD1_NeZL-5RZQpypjOxz-11" value="6.0" style="swimlane;fontStyle=0;childLayout=stackLayout;horizontal=1;startSize=26;fillColor=none;horizontalStack=0;resizeParent=1;resizeParentMax=0;resizeLast=0;collapsible=1;marginBottom=0;whiteSpace=wrap;html=1;rounded=1;" vertex="1" parent="1">
          <mxGeometry x="-241" y="270" width="140" height="90" as="geometry" />
        </mxCell>
        <mxCell id="qD1_NeZL-5RZQpypjOxz-12" value="Coach Registration" style="text;strokeColor=none;fillColor=none;align=center;verticalAlign=top;spacingLeft=4;spacingRight=4;overflow=hidden;rotatable=0;points=[[0,0.5],[1,0.5]];portConstraint=eastwest;whiteSpace=wrap;html=1;" vertex="1" parent="qD1_NeZL-5RZQpypjOxz-11">
          <mxGeometry y="26" width="140" height="64" as="geometry" />
        </mxCell>
        <mxCell id="FNH2PhTzVs-gwj8La_SQ-6" style="edgeStyle=orthogonalEdgeStyle;rounded=0;orthogonalLoop=1;jettySize=auto;html=1;exitX=0;exitY=0.5;exitDx=0;exitDy=0;entryX=-0.001;entryY=0.295;entryDx=0;entryDy=0;entryPerimeter=0;" edge="1" parent="qD1_NeZL-5RZQpypjOxz-11" source="qD1_NeZL-5RZQpypjOxz-11" target="qD1_NeZL-5RZQpypjOxz-12">
          <mxGeometry relative="1" as="geometry" />
        </mxCell>
        <mxCell id="ate-xKjjSHt2ne3AMyED-6" style="edgeStyle=orthogonalEdgeStyle;rounded=0;orthogonalLoop=1;jettySize=auto;html=1;entryX=1;entryY=0.5;entryDx=0;entryDy=0;" edge="1" parent="1" source="qD1_NeZL-5RZQpypjOxz-13" target="KxhmgycNJtpGFKeVmDsa-1">
          <mxGeometry relative="1" as="geometry" />
        </mxCell>
        <mxCell id="R3Cy_XheF9bZTiy_QXOu-1" value="Added Product" style="edgeLabel;html=1;align=center;verticalAlign=middle;resizable=0;points=[];" vertex="1" connectable="0" parent="ate-xKjjSHt2ne3AMyED-6">
          <mxGeometry x="-0.5235" y="-3" relative="1" as="geometry">
            <mxPoint x="79" y="-3" as="offset" />
          </mxGeometry>
        </mxCell>
        <mxCell id="qD1_NeZL-5RZQpypjOxz-13" value="8.0" style="swimlane;fontStyle=0;childLayout=stackLayout;horizontal=1;startSize=26;fillColor=none;horizontalStack=0;resizeParent=1;resizeParentMax=0;resizeLast=0;collapsible=1;marginBottom=0;whiteSpace=wrap;html=1;rounded=1;" vertex="1" parent="1">
          <mxGeometry x="329" y="670" width="140" height="90" as="geometry" />
        </mxCell>
        <mxCell id="qD1_NeZL-5RZQpypjOxz-14" value="Add Product" style="text;strokeColor=none;fillColor=none;align=center;verticalAlign=top;spacingLeft=4;spacingRight=4;overflow=hidden;rotatable=0;points=[[0,0.5],[1,0.5]];portConstraint=eastwest;whiteSpace=wrap;html=1;" vertex="1" parent="qD1_NeZL-5RZQpypjOxz-13">
          <mxGeometry y="26" width="140" height="64" as="geometry" />
        </mxCell>
        <mxCell id="qD1_NeZL-5RZQpypjOxz-15" value="10.0" style="swimlane;fontStyle=0;childLayout=stackLayout;horizontal=1;startSize=26;fillColor=none;horizontalStack=0;resizeParent=1;resizeParentMax=0;resizeLast=0;collapsible=1;marginBottom=0;whiteSpace=wrap;html=1;rounded=1;" vertex="1" parent="1">
          <mxGeometry x="-156" y="590" width="140" height="90" as="geometry" />
        </mxCell>
        <mxCell id="qD1_NeZL-5RZQpypjOxz-16" value="&lt;div&gt;Add Gym&amp;nbsp;&lt;/div&gt;&lt;div&gt;Equipment&lt;/div&gt;" style="text;strokeColor=none;fillColor=none;align=center;verticalAlign=top;spacingLeft=4;spacingRight=4;overflow=hidden;rotatable=0;points=[[0,0.5],[1,0.5]];portConstraint=eastwest;whiteSpace=wrap;html=1;" vertex="1" parent="qD1_NeZL-5RZQpypjOxz-15">
          <mxGeometry y="26" width="140" height="64" as="geometry" />
        </mxCell>
        <mxCell id="_ScF7VTh0HtPhi7bIy_M-1" style="edgeStyle=orthogonalEdgeStyle;rounded=0;orthogonalLoop=1;jettySize=auto;html=1;exitX=1;exitY=0.25;exitDx=0;exitDy=0;" edge="1" parent="1" source="qD1_NeZL-5RZQpypjOxz-17">
          <mxGeometry relative="1" as="geometry">
            <mxPoint x="420" y="220" as="targetPoint" />
            <Array as="points">
              <mxPoint x="230" y="170" />
              <mxPoint x="420" y="170" />
              <mxPoint x="420" y="220" />
            </Array>
          </mxGeometry>
        </mxCell>
        <mxCell id="_ScF7VTh0HtPhi7bIy_M-2" value="&lt;div&gt;Ticket Trainer&amp;nbsp;&lt;/div&gt;&lt;div&gt;Access&lt;/div&gt;" style="edgeLabel;html=1;align=center;verticalAlign=middle;resizable=0;points=[];" vertex="1" connectable="0" parent="_ScF7VTh0HtPhi7bIy_M-1">
          <mxGeometry x="-0.2203" y="-2" relative="1" as="geometry">
            <mxPoint as="offset" />
          </mxGeometry>
        </mxCell>
        <mxCell id="qD1_NeZL-5RZQpypjOxz-17" value="7.0" style="swimlane;fontStyle=0;childLayout=stackLayout;horizontal=1;startSize=26;fillColor=none;horizontalStack=0;resizeParent=1;resizeParentMax=0;resizeLast=0;collapsible=1;marginBottom=0;whiteSpace=wrap;html=1;rounded=1;" vertex="1" parent="1">
          <mxGeometry x="90" y="145" width="140" height="90" as="geometry" />
        </mxCell>
        <mxCell id="qD1_NeZL-5RZQpypjOxz-18" value="&lt;div&gt;Training&lt;/div&gt;&lt;div&gt;&amp;nbsp;Member&lt;/div&gt;" style="text;strokeColor=none;fillColor=none;align=center;verticalAlign=top;spacingLeft=4;spacingRight=4;overflow=hidden;rotatable=0;points=[[0,0.5],[1,0.5]];portConstraint=eastwest;whiteSpace=wrap;html=1;" vertex="1" parent="qD1_NeZL-5RZQpypjOxz-17">
          <mxGeometry y="26" width="140" height="64" as="geometry" />
        </mxCell>
        <mxCell id="KxhmgycNJtpGFKeVmDsa-3" value="Amount Product" style="edgeStyle=orthogonalEdgeStyle;rounded=0;orthogonalLoop=1;jettySize=auto;html=1;" edge="1" parent="1" source="qD1_NeZL-5RZQpypjOxz-19">
          <mxGeometry x="0.2573" relative="1" as="geometry">
            <mxPoint x="40" y="475" as="targetPoint" />
            <Array as="points">
              <mxPoint x="1100" y="155" />
              <mxPoint x="1100" y="790" />
              <mxPoint x="40" y="790" />
              <mxPoint x="40" y="475" />
            </Array>
            <mxPoint as="offset" />
          </mxGeometry>
        </mxCell>
        <mxCell id="-w1MS_aze6ns3UJNXALJ-1" style="edgeStyle=orthogonalEdgeStyle;rounded=0;orthogonalLoop=1;jettySize=auto;html=1;" edge="1" parent="1" source="qD1_NeZL-5RZQpypjOxz-19" target="qD1_NeZL-5RZQpypjOxz-5">
          <mxGeometry relative="1" as="geometry">
            <Array as="points">
              <mxPoint x="770" y="300" />
              <mxPoint x="680" y="300" />
            </Array>
          </mxGeometry>
        </mxCell>
        <mxCell id="-w1MS_aze6ns3UJNXALJ-2" value="&lt;div&gt;Product &lt;br&gt;&lt;/div&gt;&lt;div&gt;Amount&lt;br&gt;&lt;/div&gt;" style="edgeLabel;html=1;align=center;verticalAlign=middle;resizable=0;points=[];" vertex="1" connectable="0" parent="-w1MS_aze6ns3UJNXALJ-1">
          <mxGeometry x="-0.3405" relative="1" as="geometry">
            <mxPoint x="-40" y="4" as="offset" />
          </mxGeometry>
        </mxCell>
        <mxCell id="-w1MS_aze6ns3UJNXALJ-3" value="Product Availed" style="edgeStyle=orthogonalEdgeStyle;rounded=0;orthogonalLoop=1;jettySize=auto;html=1;exitX=0;exitY=0.25;exitDx=0;exitDy=0;entryX=0.5;entryY=0;entryDx=0;entryDy=0;" edge="1" parent="1" source="qD1_NeZL-5RZQpypjOxz-19" target="KXdZDJxWf1U4n6GN-KbS-2">
          <mxGeometry relative="1" as="geometry" />
        </mxCell>
        <mxCell id="qD1_NeZL-5RZQpypjOxz-19" value="9.0" style="swimlane;fontStyle=0;childLayout=stackLayout;horizontal=1;startSize=26;fillColor=none;horizontalStack=0;resizeParent=1;resizeParentMax=0;resizeLast=0;collapsible=1;marginBottom=0;whiteSpace=wrap;html=1;rounded=1;" vertex="1" parent="1">
          <mxGeometry x="700" y="110" width="140" height="90" as="geometry" />
        </mxCell>
        <mxCell id="qD1_NeZL-5RZQpypjOxz-20" value="Purchase Product" style="text;strokeColor=none;fillColor=none;align=center;verticalAlign=top;spacingLeft=4;spacingRight=4;overflow=hidden;rotatable=0;points=[[0,0.5],[1,0.5]];portConstraint=eastwest;whiteSpace=wrap;html=1;" vertex="1" parent="qD1_NeZL-5RZQpypjOxz-19">
          <mxGeometry y="26" width="140" height="64" as="geometry" />
        </mxCell>
        <mxCell id="Uth2_NFcaI5KKnc-upX_-15" value="&lt;div&gt;Coach&lt;/div&gt;&lt;div&gt;Personal Info&lt;br&gt;&lt;/div&gt;" style="edgeStyle=orthogonalEdgeStyle;rounded=0;orthogonalLoop=1;jettySize=auto;html=1;exitX=1;exitY=0.5;exitDx=0;exitDy=0;entryX=0.283;entryY=0.006;entryDx=0;entryDy=0;entryPerimeter=0;" edge="1" parent="1" source="KXdZDJxWf1U4n6GN-KbS-1" target="qD1_NeZL-5RZQpypjOxz-4">
          <mxGeometry x="-0.5318" relative="1" as="geometry">
            <mxPoint x="10" y="415" as="targetPoint" />
            <Array as="points">
              <mxPoint x="-111" y="210" />
              <mxPoint x="30" y="210" />
              <mxPoint x="30" y="415" />
            </Array>
            <mxPoint as="offset" />
          </mxGeometry>
        </mxCell>
        <mxCell id="_ScF7VTh0HtPhi7bIy_M-6" style="edgeStyle=orthogonalEdgeStyle;rounded=0;orthogonalLoop=1;jettySize=auto;html=1;" edge="1" parent="1" source="KXdZDJxWf1U4n6GN-KbS-1" target="FNH2PhTzVs-gwj8La_SQ-3">
          <mxGeometry relative="1" as="geometry">
            <Array as="points">
              <mxPoint x="-320" y="190" />
            </Array>
          </mxGeometry>
        </mxCell>
        <mxCell id="_ScF7VTh0HtPhi7bIy_M-7" value="&lt;div&gt;Trained&lt;/div&gt;&lt;div&gt;Record&lt;br&gt; &lt;/div&gt;" style="edgeLabel;html=1;align=center;verticalAlign=middle;resizable=0;points=[];" vertex="1" connectable="0" parent="_ScF7VTh0HtPhi7bIy_M-6">
          <mxGeometry x="0.1998" y="-3" relative="1" as="geometry">
            <mxPoint as="offset" />
          </mxGeometry>
        </mxCell>
        <mxCell id="KXdZDJxWf1U4n6GN-KbS-1" value="Coach" style="rounded=0;whiteSpace=wrap;html=1;" vertex="1" parent="1">
          <mxGeometry x="-231" y="160" width="120" height="60" as="geometry" />
        </mxCell>
        <mxCell id="KXdZDJxWf1U4n6GN-KbS-4" style="edgeStyle=orthogonalEdgeStyle;rounded=0;orthogonalLoop=1;jettySize=auto;html=1;entryX=0.5;entryY=0;entryDx=0;entryDy=0;" edge="1" parent="1">
          <mxGeometry relative="1" as="geometry">
            <mxPoint x="439" y="280" as="sourcePoint" />
            <mxPoint x="439" y="400" as="targetPoint" />
          </mxGeometry>
        </mxCell>
        <mxCell id="KXdZDJxWf1U4n6GN-KbS-5" value="&lt;div&gt;Personal&amp;nbsp;&lt;/div&gt;&lt;div&gt;Information&lt;/div&gt;" style="edgeLabel;html=1;align=center;verticalAlign=middle;resizable=0;points=[];" vertex="1" connectable="0" parent="KXdZDJxWf1U4n6GN-KbS-4">
          <mxGeometry y="3" relative="1" as="geometry">
            <mxPoint as="offset" />
          </mxGeometry>
        </mxCell>
        <mxCell id="Uth2_NFcaI5KKnc-upX_-6" value="&lt;div&gt;Amount &lt;br&gt;&lt;/div&gt;&lt;div&gt;Payment&lt;br&gt;&lt;/div&gt;" style="edgeStyle=orthogonalEdgeStyle;rounded=0;orthogonalLoop=1;jettySize=auto;html=1;exitX=0.75;exitY=1;exitDx=0;exitDy=0;" edge="1" parent="1" source="KXdZDJxWf1U4n6GN-KbS-2" target="qD1_NeZL-5RZQpypjOxz-1">
          <mxGeometry relative="1" as="geometry">
            <mxPoint x="492" y="400" as="targetPoint" />
            <Array as="points">
              <mxPoint x="493" y="380" />
              <mxPoint x="493" y="380" />
            </Array>
          </mxGeometry>
        </mxCell>
        <mxCell id="_ScF7VTh0HtPhi7bIy_M-3" style="edgeStyle=orthogonalEdgeStyle;rounded=0;orthogonalLoop=1;jettySize=auto;html=1;exitX=0.729;exitY=-0.017;exitDx=0;exitDy=0;entryX=0.5;entryY=0;entryDx=0;entryDy=0;exitPerimeter=0;" edge="1" parent="1">
          <mxGeometry relative="1" as="geometry">
            <mxPoint x="441.48" y="220.00000000000003" as="sourcePoint" />
            <mxPoint x="-220" y="157.02" as="targetPoint" />
            <Array as="points">
              <mxPoint x="442" y="217.02" />
              <mxPoint x="441" y="217.02" />
              <mxPoint x="441" y="117.02" />
              <mxPoint x="-220" y="117.02" />
            </Array>
          </mxGeometry>
        </mxCell>
        <mxCell id="_ScF7VTh0HtPhi7bIy_M-4" value="Credential" style="edgeLabel;html=1;align=center;verticalAlign=middle;resizable=0;points=[];" vertex="1" connectable="0" parent="_ScF7VTh0HtPhi7bIy_M-3">
          <mxGeometry x="0.056" y="-3" relative="1" as="geometry">
            <mxPoint x="-55" y="1" as="offset" />
          </mxGeometry>
        </mxCell>
        <mxCell id="lEGSEoVQF2Qkr2799f8w-3" value="Attendy" style="edgeStyle=orthogonalEdgeStyle;rounded=0;orthogonalLoop=1;jettySize=auto;html=1;exitX=0;exitY=1;exitDx=0;exitDy=0;" edge="1" parent="1" source="KXdZDJxWf1U4n6GN-KbS-2" target="lEGSEoVQF2Qkr2799f8w-2">
          <mxGeometry x="0.4345" y="-1" relative="1" as="geometry">
            <mxPoint x="336" y="362" as="targetPoint" />
            <Array as="points">
              <mxPoint x="410" y="280" />
              <mxPoint x="410" y="351" />
            </Array>
            <mxPoint as="offset" />
          </mxGeometry>
        </mxCell>
        <mxCell id="KxhmgycNJtpGFKeVmDsa-2" value="Product Info" style="edgeStyle=orthogonalEdgeStyle;rounded=0;orthogonalLoop=1;jettySize=auto;html=1;exitX=0.75;exitY=0;exitDx=0;exitDy=0;" edge="1" parent="1" source="KXdZDJxWf1U4n6GN-KbS-2">
          <mxGeometry x="0.1934" relative="1" as="geometry">
            <mxPoint x="700" y="160" as="targetPoint" />
            <Array as="points">
              <mxPoint x="490" y="220" />
              <mxPoint x="490" y="160" />
              <mxPoint x="700" y="160" />
            </Array>
            <mxPoint as="offset" />
          </mxGeometry>
        </mxCell>
        <mxCell id="KXdZDJxWf1U4n6GN-KbS-2" value="Member" style="rounded=0;whiteSpace=wrap;html=1;" vertex="1" parent="1">
          <mxGeometry x="403" y="220" width="120" height="60" as="geometry" />
        </mxCell>
        <mxCell id="D1YbJyBubC6nEENda3fk-1" value="&lt;span style=&quot;white-space: pre;&quot;&gt;&#x9;&lt;/span&gt;Member Records" style="html=1;dashed=0;whiteSpace=wrap;shape=mxgraph.dfd.dataStoreID;align=center;spacingLeft=3;points=[[0,0],[0.5,0],[1,0],[0,0.5],[1,0.5],[0,1],[0.5,1],[1,1]];" vertex="1" parent="1">
          <mxGeometry x="-334" y="441" width="150" height="34" as="geometry" />
        </mxCell>
        <mxCell id="Uth2_NFcaI5KKnc-upX_-7" value="&lt;div&gt;Membership &lt;br&gt;&lt;/div&gt;&lt;div&gt;Amount&lt;br&gt;&lt;/div&gt;" style="edgeStyle=orthogonalEdgeStyle;rounded=0;orthogonalLoop=1;jettySize=auto;html=1;entryX=0.002;entryY=0.289;entryDx=0;entryDy=0;entryPerimeter=0;" edge="1" parent="1" source="qD1_NeZL-5RZQpypjOxz-1" target="qD1_NeZL-5RZQpypjOxz-6">
          <mxGeometry relative="1" as="geometry" />
        </mxCell>
        <mxCell id="Uth2_NFcaI5KKnc-upX_-9" value="&lt;span style=&quot;white-space: pre;&quot;&gt;&#x9;&lt;/span&gt;Payment Records" style="html=1;dashed=0;whiteSpace=wrap;shape=mxgraph.dfd.dataStoreID;align=center;spacingLeft=3;points=[[0,0],[0.5,0],[1,0],[0,0.5],[1,0.5],[0,1],[0.5,1],[1,1]];" vertex="1" parent="1">
          <mxGeometry x="855" y="428" width="150" height="34" as="geometry" />
        </mxCell>
        <mxCell id="Uth2_NFcaI5KKnc-upX_-10" style="edgeStyle=orthogonalEdgeStyle;rounded=0;orthogonalLoop=1;jettySize=auto;html=1;entryX=0;entryY=0.5;entryDx=0;entryDy=0;" edge="1" parent="1" source="qD1_NeZL-5RZQpypjOxz-6" target="Uth2_NFcaI5KKnc-upX_-9">
          <mxGeometry relative="1" as="geometry">
            <Array as="points">
              <mxPoint x="780" y="445" />
              <mxPoint x="780" y="445" />
            </Array>
          </mxGeometry>
        </mxCell>
        <mxCell id="Uth2_NFcaI5KKnc-upX_-11" value="&lt;div&gt;Receipt &lt;br&gt;&lt;/div&gt;&lt;div&gt;Amount&lt;br&gt;&lt;/div&gt;" style="edgeLabel;html=1;align=center;verticalAlign=middle;resizable=0;points=[];" vertex="1" connectable="0" parent="Uth2_NFcaI5KKnc-upX_-10">
          <mxGeometry x="-0.0405" y="-1" relative="1" as="geometry">
            <mxPoint as="offset" />
          </mxGeometry>
        </mxCell>
        <mxCell id="FNH2PhTzVs-gwj8La_SQ-1" value="&lt;div&gt;Coach&lt;/div&gt;&lt;div&gt;Information&lt;br&gt;&lt;/div&gt;" style="edgeStyle=orthogonalEdgeStyle;rounded=0;orthogonalLoop=1;jettySize=auto;html=1;exitX=0.073;exitY=0.024;exitDx=0;exitDy=0;exitPerimeter=0;" edge="1" parent="1" source="qD1_NeZL-5RZQpypjOxz-4">
          <mxGeometry x="0.3833" y="-2" relative="1" as="geometry">
            <mxPoint x="-31" y="415" as="sourcePoint" />
            <mxPoint x="-100" y="320" as="targetPoint" />
            <Array as="points">
              <mxPoint x="-15" y="415" />
              <mxPoint x="-1" y="415" />
              <mxPoint x="-1" y="320" />
              <mxPoint x="-100" y="320" />
            </Array>
            <mxPoint as="offset" />
          </mxGeometry>
        </mxCell>
        <mxCell id="FNH2PhTzVs-gwj8La_SQ-3" value="&lt;span style=&quot;white-space: pre;&quot;&gt;&#x9;&lt;/span&gt;Coach Records" style="html=1;dashed=0;whiteSpace=wrap;shape=mxgraph.dfd.dataStoreID;align=center;spacingLeft=3;points=[[0,0],[0.5,0],[1,0],[0,0.5],[1,0.5],[0,1],[0.5,1],[1,1]];" vertex="1" parent="1">
          <mxGeometry x="-334" y="394" width="150" height="34" as="geometry" />
        </mxCell>
        <mxCell id="FNH2PhTzVs-gwj8La_SQ-8" value="Coach Credential" style="edgeStyle=orthogonalEdgeStyle;rounded=0;orthogonalLoop=1;jettySize=auto;html=1;exitX=1;exitY=0.25;exitDx=0;exitDy=0;entryX=-0.012;entryY=0.073;entryDx=0;entryDy=0;entryPerimeter=0;" edge="1" parent="1" source="KXdZDJxWf1U4n6GN-KbS-1" target="qD1_NeZL-5RZQpypjOxz-18">
          <mxGeometry relative="1" as="geometry" />
        </mxCell>
        <mxCell id="lEGSEoVQF2Qkr2799f8w-1" value="2.0" style="swimlane;fontStyle=0;childLayout=stackLayout;horizontal=1;startSize=26;fillColor=none;horizontalStack=0;resizeParent=1;resizeParentMax=0;resizeLast=0;collapsible=1;marginBottom=0;whiteSpace=wrap;html=1;rounded=1;" vertex="1" parent="1">
          <mxGeometry x="189" y="293" width="140" height="90" as="geometry" />
        </mxCell>
        <mxCell id="lEGSEoVQF2Qkr2799f8w-2" value="Attendance" style="text;strokeColor=none;fillColor=none;align=center;verticalAlign=top;spacingLeft=4;spacingRight=4;overflow=hidden;rotatable=0;points=[[0,0.5],[1,0.5]];portConstraint=eastwest;whiteSpace=wrap;html=1;" vertex="1" parent="lEGSEoVQF2Qkr2799f8w-1">
          <mxGeometry y="26" width="140" height="64" as="geometry" />
        </mxCell>
        <mxCell id="lEGSEoVQF2Qkr2799f8w-4" value="&lt;div&gt;Daily&lt;/div&gt;&lt;div&gt;Member&lt;br&gt;&lt;/div&gt;&lt;div&gt;Progress&lt;br&gt;&lt;/div&gt;" style="edgeStyle=orthogonalEdgeStyle;rounded=0;orthogonalLoop=1;jettySize=auto;html=1;entryX=0.75;entryY=0;entryDx=0;entryDy=0;" edge="1" parent="1" source="lEGSEoVQF2Qkr2799f8w-2" target="qD1_NeZL-5RZQpypjOxz-4">
          <mxGeometry relative="1" as="geometry" />
        </mxCell>
        <mxCell id="KxhmgycNJtpGFKeVmDsa-1" value="&lt;span style=&quot;white-space: pre;&quot;&gt;&#x9;&lt;/span&gt;Product Records" style="html=1;dashed=0;whiteSpace=wrap;shape=mxgraph.dfd.dataStoreID;align=center;spacingLeft=3;points=[[0,0],[0.5,0],[1,0],[0,0.5],[1,0.5],[0,1],[0.5,1],[1,1]];" vertex="1" parent="1">
          <mxGeometry x="855" y="380" width="150" height="34" as="geometry" />
        </mxCell>
        <mxCell id="eKysZPO74eqPrIm3fnb9-2" style="edgeStyle=orthogonalEdgeStyle;rounded=0;orthogonalLoop=1;jettySize=auto;html=1;entryX=0;entryY=0.5;entryDx=0;entryDy=0;" edge="1" parent="1" source="qD1_NeZL-5RZQpypjOxz-8" target="qD1_NeZL-5RZQpypjOxz-10">
          <mxGeometry relative="1" as="geometry" />
        </mxCell>
        <mxCell id="5huNEf4K2fGAR0qen7jf-1" value="&lt;div&gt;All Sorted&amp;nbsp;&lt;/div&gt;&lt;div&gt;Documents&lt;/div&gt;" style="edgeLabel;html=1;align=center;verticalAlign=middle;resizable=0;points=[];" vertex="1" connectable="0" parent="eKysZPO74eqPrIm3fnb9-2">
          <mxGeometry x="-0.3134" y="1" relative="1" as="geometry">
            <mxPoint x="23" as="offset" />
          </mxGeometry>
        </mxCell>
        <mxCell id="eKysZPO74eqPrIm3fnb9-3" value="&lt;span style=&quot;white-space: pre;&quot;&gt;&#x9;&lt;/span&gt;All Sorted Records" style="html=1;dashed=0;whiteSpace=wrap;shape=mxgraph.dfd.dataStoreID;align=center;spacingLeft=3;points=[[0,0],[0.5,0],[1,0],[0,0.5],[1,0.5],[0,1],[0.5,1],[1,1]];" vertex="1" parent="1">
          <mxGeometry x="857" y="590" width="150" height="34" as="geometry" />
        </mxCell>
        <mxCell id="eKysZPO74eqPrIm3fnb9-4" style="edgeStyle=orthogonalEdgeStyle;rounded=0;orthogonalLoop=1;jettySize=auto;html=1;entryX=0;entryY=0.5;entryDx=0;entryDy=0;" edge="1" parent="1" source="qD1_NeZL-5RZQpypjOxz-10" target="eKysZPO74eqPrIm3fnb9-3">
          <mxGeometry relative="1" as="geometry">
            <Array as="points">
              <mxPoint x="730" y="607" />
              <mxPoint x="730" y="607" />
            </Array>
          </mxGeometry>
        </mxCell>
        <mxCell id="S9MG1A1X3FMFwnkEaT57-1" value="&lt;div&gt;Recorded&amp;nbsp;&lt;/div&gt;&lt;div&gt;Documents&lt;/div&gt;" style="edgeLabel;html=1;align=center;verticalAlign=middle;resizable=0;points=[];" vertex="1" connectable="0" parent="eKysZPO74eqPrIm3fnb9-4">
          <mxGeometry x="0.0363" y="-3" relative="1" as="geometry">
            <mxPoint as="offset" />
          </mxGeometry>
        </mxCell>
        <mxCell id="eKysZPO74eqPrIm3fnb9-5" value="Product Amount" style="edgeStyle=orthogonalEdgeStyle;rounded=0;orthogonalLoop=1;jettySize=auto;html=1;entryX=0.356;entryY=0.017;entryDx=0;entryDy=0;entryPerimeter=0;" edge="1" parent="1" source="KXdZDJxWf1U4n6GN-KbS-2" target="qD1_NeZL-5RZQpypjOxz-4">
          <mxGeometry relative="1" as="geometry">
            <mxPoint x="406" y="251" as="sourcePoint" />
            <mxPoint x="45" y="410" as="targetPoint" />
          </mxGeometry>
        </mxCell>
        <mxCell id="ate-xKjjSHt2ne3AMyED-2" value="&lt;span style=&quot;white-space: pre;&quot;&gt;&#x9;&lt;/span&gt;Equipment Records" style="html=1;dashed=0;whiteSpace=wrap;shape=mxgraph.dfd.dataStoreID;align=center;spacingLeft=3;points=[[0,0],[0.5,0],[1,0],[0,0.5],[1,0.5],[0,1],[0.5,1],[1,1]];" vertex="1" parent="1">
          <mxGeometry x="-334" y="490" width="150" height="34" as="geometry" />
        </mxCell>
        <mxCell id="ate-xKjjSHt2ne3AMyED-3" value="&lt;div&gt;Added &lt;br&gt;&lt;/div&gt;&lt;div&gt;Equipment&lt;br&gt;&lt;/div&gt;" style="edgeStyle=orthogonalEdgeStyle;rounded=0;orthogonalLoop=1;jettySize=auto;html=1;entryX=0.5;entryY=1;entryDx=0;entryDy=0;" edge="1" parent="1" source="qD1_NeZL-5RZQpypjOxz-16" target="ate-xKjjSHt2ne3AMyED-2">
          <mxGeometry relative="1" as="geometry" />
        </mxCell>
        <mxCell id="ate-xKjjSHt2ne3AMyED-8" value="Product Information" style="edgeStyle=orthogonalEdgeStyle;rounded=0;orthogonalLoop=1;jettySize=auto;html=1;entryX=0.004;entryY=0.286;entryDx=0;entryDy=0;entryPerimeter=0;" edge="1" parent="1" source="qD1_NeZL-5RZQpypjOxz-4" target="qD1_NeZL-5RZQpypjOxz-14">
          <mxGeometry x="0.4753" relative="1" as="geometry">
            <mxPoint as="offset" />
          </mxGeometry>
        </mxCell>
      </root>
    </mxGraphModel>
  </diagram>
  <diagram name="level 1 (Member Registration" id="z3cGfwZfkwhjIubWeypt">
    <mxGraphModel dx="1114" dy="616" grid="1" gridSize="10" guides="1" tooltips="1" connect="1" arrows="1" fold="1" page="1" pageScale="1" pageWidth="850" pageHeight="1100" math="0" shadow="0">
      <root>
        <mxCell id="0" />
        <mxCell id="1" parent="0" />
        <mxCell id="EX8Zy7shsUyCUedpD0rH-1" value="&lt;div&gt;Personal&lt;/div&gt;&lt;div&gt;&amp;nbsp;Information&lt;/div&gt;" style="edgeStyle=orthogonalEdgeStyle;rounded=0;orthogonalLoop=1;jettySize=auto;html=1;exitX=0.5;exitY=1;exitDx=0;exitDy=0;entryX=0.5;entryY=0;entryDx=0;entryDy=0;" parent="1" source="elMBcsQxJQfE7-rjxcNW-1" target="elMBcsQxJQfE7-rjxcNW-2" edge="1">
          <mxGeometry relative="1" as="geometry" />
        </mxCell>
        <mxCell id="elMBcsQxJQfE7-rjxcNW-1" value="Member " style="rounded=0;whiteSpace=wrap;html=1;" parent="1" vertex="1">
          <mxGeometry x="110" y="260" width="120" height="60" as="geometry" />
        </mxCell>
        <mxCell id="elMBcsQxJQfE7-rjxcNW-2" value="&lt;div&gt;1.1&lt;/div&gt;" style="swimlane;fontStyle=0;childLayout=stackLayout;horizontal=1;startSize=26;fillColor=none;horizontalStack=0;resizeParent=1;resizeParentMax=0;resizeLast=0;collapsible=1;marginBottom=0;whiteSpace=wrap;html=1;rounded=1;" parent="1" vertex="1">
          <mxGeometry x="100" y="396" width="140" height="90" as="geometry" />
        </mxCell>
        <mxCell id="elMBcsQxJQfE7-rjxcNW-3" value="Member &lt;br&gt;Registration" style="text;strokeColor=none;fillColor=none;align=center;verticalAlign=top;spacingLeft=4;spacingRight=4;overflow=hidden;rotatable=0;points=[[0,0.5],[1,0.5]];portConstraint=eastwest;whiteSpace=wrap;html=1;" parent="elMBcsQxJQfE7-rjxcNW-2" vertex="1">
          <mxGeometry y="26" width="140" height="64" as="geometry" />
        </mxCell>
        <mxCell id="elMBcsQxJQfE7-rjxcNW-16" value="&lt;span style=&quot;white-space: pre;&quot;&gt;&#x9;&lt;/span&gt;Compile Member Records" style="html=1;dashed=0;whiteSpace=wrap;shape=mxgraph.dfd.dataStoreID;align=center;spacingLeft=3;points=[[0,0],[0.5,0],[1,0],[0,0.5],[1,0.5],[0,1],[0.5,1],[1,1]];" parent="1" vertex="1">
          <mxGeometry x="630" y="426" width="150" height="34" as="geometry" />
        </mxCell>
        <mxCell id="elMBcsQxJQfE7-rjxcNW-20" style="edgeStyle=orthogonalEdgeStyle;rounded=0;orthogonalLoop=1;jettySize=auto;html=1;exitX=1.01;exitY=0.274;exitDx=0;exitDy=0;exitPerimeter=0;entryX=0.004;entryY=0.363;entryDx=0;entryDy=0;entryPerimeter=0;" parent="1" source="elMBcsQxJQfE7-rjxcNW-3" edge="1">
          <mxGeometry relative="1" as="geometry">
            <mxPoint x="380.55999999999995" y="439.23199999999997" as="targetPoint" />
          </mxGeometry>
        </mxCell>
        <mxCell id="elMBcsQxJQfE7-rjxcNW-21" value="&lt;div&gt;New Member&lt;/div&gt;&lt;div&gt;&amp;nbsp;Information&lt;/div&gt;" style="edgeLabel;html=1;align=center;verticalAlign=middle;resizable=0;points=[];" parent="elMBcsQxJQfE7-rjxcNW-20" vertex="1" connectable="0">
          <mxGeometry x="-0.1039" relative="1" as="geometry">
            <mxPoint as="offset" />
          </mxGeometry>
        </mxCell>
        <mxCell id="EX8Zy7shsUyCUedpD0rH-3" value="&lt;div&gt;Registered &lt;br&gt;&lt;/div&gt;&lt;div&gt;&amp;nbsp;New Member&lt;/div&gt;&lt;div&gt;Info&lt;br&gt;&lt;/div&gt;" style="edgeStyle=orthogonalEdgeStyle;rounded=0;orthogonalLoop=1;jettySize=auto;html=1;exitX=1;exitY=0.5;exitDx=0;exitDy=0;entryX=0;entryY=0.5;entryDx=0;entryDy=0;" parent="1" source="EX8Zy7shsUyCUedpD0rH-2" target="elMBcsQxJQfE7-rjxcNW-16" edge="1">
          <mxGeometry relative="1" as="geometry">
            <mxPoint x="700" y="436" as="targetPoint" />
          </mxGeometry>
        </mxCell>
        <mxCell id="EX8Zy7shsUyCUedpD0rH-2" value="Admin" style="rounded=0;whiteSpace=wrap;html=1;" parent="1" vertex="1">
          <mxGeometry x="380" y="411" width="120" height="60" as="geometry" />
        </mxCell>
        <mxCell id="u-u-BjuH_KMp1-HSWydg-3" style="edgeStyle=orthogonalEdgeStyle;rounded=0;orthogonalLoop=1;jettySize=auto;html=1;entryX=0.514;entryY=1.016;entryDx=0;entryDy=0;entryPerimeter=0;" parent="1" source="elMBcsQxJQfE7-rjxcNW-16" target="elMBcsQxJQfE7-rjxcNW-3" edge="1">
          <mxGeometry relative="1" as="geometry">
            <Array as="points">
              <mxPoint x="700" y="506" />
              <mxPoint x="172" y="506" />
            </Array>
          </mxGeometry>
        </mxCell>
        <mxCell id="u-u-BjuH_KMp1-HSWydg-4" value="Members Credential" style="edgeLabel;html=1;align=center;verticalAlign=middle;resizable=0;points=[];" parent="u-u-BjuH_KMp1-HSWydg-3" vertex="1" connectable="0">
          <mxGeometry x="0.0388" y="1" relative="1" as="geometry">
            <mxPoint as="offset" />
          </mxGeometry>
        </mxCell>
      </root>
    </mxGraphModel>
  </diagram>
  <diagram id="CMloHNQ0wmYo9-GDyiSY" name="Level 2 (Attendance)">
    <mxGraphModel grid="1" page="1" gridSize="10" guides="1" tooltips="1" connect="1" arrows="1" fold="1" pageScale="1" pageWidth="850" pageHeight="1100" math="0" shadow="0">
      <root>
        <mxCell id="0" />
        <mxCell id="1" parent="0" />
        <mxCell id="OHPk_S4pNsOMNDKyvP1N-1" style="edgeStyle=orthogonalEdgeStyle;rounded=0;orthogonalLoop=1;jettySize=auto;html=1;entryX=0.5;entryY=0;entryDx=0;entryDy=0;" edge="1" parent="1" source="E72vZt5Xvn1a7JmbrH1C-1" target="vjvNdTXj86Oxpo6xxF8Y-1">
          <mxGeometry relative="1" as="geometry">
            <Array as="points">
              <mxPoint x="-155" y="180" />
              <mxPoint x="-710" y="180" />
            </Array>
          </mxGeometry>
        </mxCell>
        <mxCell id="E72vZt5Xvn1a7JmbrH1C-1" value="&lt;span style=&quot;white-space: pre;&quot;&gt;&#x9;&lt;/span&gt;Member Records" style="html=1;dashed=0;whiteSpace=wrap;shape=mxgraph.dfd.dataStoreID;align=center;spacingLeft=3;points=[[0,0],[0.5,0],[1,0],[0,0.5],[1,0.5],[0,1],[0.5,1],[1,1]];" vertex="1" parent="1">
          <mxGeometry x="-230" y="233" width="150" height="34" as="geometry" />
        </mxCell>
        <mxCell id="vjvNdTXj86Oxpo6xxF8Y-6" value="&lt;div&gt;Checked in&lt;/div&gt;&lt;div&gt;Information&lt;br&gt;&lt;/div&gt;" style="edgeStyle=orthogonalEdgeStyle;rounded=0;orthogonalLoop=1;jettySize=auto;html=1;entryX=0;entryY=0.5;entryDx=0;entryDy=0;" edge="1" parent="1" source="i1mEo9lLdiqg6RX_RoVm-1" target="E72vZt5Xvn1a7JmbrH1C-1">
          <mxGeometry relative="1" as="geometry" />
        </mxCell>
        <mxCell id="i1mEo9lLdiqg6RX_RoVm-1" value="2.1" style="swimlane;fontStyle=0;childLayout=stackLayout;horizontal=1;startSize=26;fillColor=none;horizontalStack=0;resizeParent=1;resizeParentMax=0;resizeLast=0;collapsible=1;marginBottom=0;whiteSpace=wrap;html=1;rounded=1;" vertex="1" parent="1">
          <mxGeometry x="-520" y="205" width="140" height="90" as="geometry" />
        </mxCell>
        <mxCell id="i1mEo9lLdiqg6RX_RoVm-2" value="&lt;div&gt;Log-Book&lt;/div&gt;&lt;div&gt;Check in&lt;br&gt;&lt;/div&gt;" style="text;strokeColor=none;fillColor=none;align=center;verticalAlign=top;spacingLeft=4;spacingRight=4;overflow=hidden;rotatable=0;points=[[0,0.5],[1,0.5]];portConstraint=eastwest;whiteSpace=wrap;html=1;" vertex="1" parent="i1mEo9lLdiqg6RX_RoVm-1">
          <mxGeometry y="26" width="140" height="64" as="geometry" />
        </mxCell>
        <mxCell id="vjvNdTXj86Oxpo6xxF8Y-1" value="Member " style="rounded=0;whiteSpace=wrap;html=1;" vertex="1" parent="1">
          <mxGeometry x="-770" y="220" width="120" height="60" as="geometry" />
        </mxCell>
        <mxCell id="vjvNdTXj86Oxpo6xxF8Y-5" value="&lt;div&gt;Member &lt;br&gt;&lt;/div&gt;&lt;div&gt;Credential&lt;br&gt;&lt;/div&gt;" style="edgeStyle=orthogonalEdgeStyle;rounded=0;orthogonalLoop=1;jettySize=auto;html=1;entryX=-0.014;entryY=0.297;entryDx=0;entryDy=0;entryPerimeter=0;" edge="1" parent="1" source="vjvNdTXj86Oxpo6xxF8Y-1" target="i1mEo9lLdiqg6RX_RoVm-2">
          <mxGeometry relative="1" as="geometry" />
        </mxCell>
      </root>
    </mxGraphModel>
  </diagram>
  <diagram id="8Bgsle6WBFaW4W7fLAzR" name="Level 3(Payment)">
    <mxGraphModel dx="1114" dy="616" grid="1" gridSize="10" guides="1" tooltips="1" connect="1" arrows="1" fold="1" page="1" pageScale="1" pageWidth="850" pageHeight="1100" math="0" shadow="0">
      <root>
        <mxCell id="0" />
        <mxCell id="1" parent="0" />
        <mxCell id="zJkR3l8xaCKapjgDyOxP-6" value="Product/Plan Information" style="edgeStyle=orthogonalEdgeStyle;rounded=0;orthogonalLoop=1;jettySize=auto;html=1;entryX=0;entryY=0.5;entryDx=0;entryDy=0;" parent="1" edge="1">
          <mxGeometry x="-0.0189" relative="1" as="geometry">
            <mxPoint x="240" y="455" as="sourcePoint" />
            <mxPoint x="425" y="454.65999999999997" as="targetPoint" />
            <mxPoint as="offset" />
          </mxGeometry>
        </mxCell>
        <mxCell id="zJkR3l8xaCKapjgDyOxP-1" value="Member" style="html=1;whiteSpace=wrap;" parent="1" vertex="1">
          <mxGeometry x="130" y="415" width="110" height="50" as="geometry" />
        </mxCell>
        <mxCell id="zJkR3l8xaCKapjgDyOxP-8" value="Amount" style="edgeStyle=orthogonalEdgeStyle;rounded=0;orthogonalLoop=1;jettySize=auto;html=1;exitX=1;exitY=0.5;exitDx=0;exitDy=0;entryX=0;entryY=0.5;entryDx=0;entryDy=0;" parent="1" source="zJkR3l8xaCKapjgDyOxP-4" target="zJkR3l8xaCKapjgDyOxP-7" edge="1">
          <mxGeometry relative="1" as="geometry" />
        </mxCell>
        <mxCell id="Upi8s8O5AXfCiQG1VnSZ-4" style="edgeStyle=orthogonalEdgeStyle;rounded=0;orthogonalLoop=1;jettySize=auto;html=1;entryX=0.5;entryY=0;entryDx=0;entryDy=0;exitX=0.5;exitY=0;exitDx=0;exitDy=0;" parent="1" source="zJkR3l8xaCKapjgDyOxP-7" target="zJkR3l8xaCKapjgDyOxP-1" edge="1">
          <mxGeometry relative="1" as="geometry">
            <mxPoint x="495" y="340" as="sourcePoint" />
            <Array as="points">
              <mxPoint x="745" y="360" />
              <mxPoint x="185" y="360" />
            </Array>
          </mxGeometry>
        </mxCell>
        <mxCell id="Upi8s8O5AXfCiQG1VnSZ-5" value="Exact Amount" style="edgeLabel;html=1;align=center;verticalAlign=middle;resizable=0;points=[];" parent="Upi8s8O5AXfCiQG1VnSZ-4" vertex="1" connectable="0">
          <mxGeometry x="0.01" y="-3" relative="1" as="geometry">
            <mxPoint x="10" y="3" as="offset" />
          </mxGeometry>
        </mxCell>
        <mxCell id="Upi8s8O5AXfCiQG1VnSZ-7" value="Product / Plan Availed" style="edgeStyle=orthogonalEdgeStyle;rounded=0;orthogonalLoop=1;jettySize=auto;html=1;entryX=0.5;entryY=1;entryDx=0;entryDy=0;" parent="1" source="zJkR3l8xaCKapjgDyOxP-4" target="zJkR3l8xaCKapjgDyOxP-1" edge="1">
          <mxGeometry relative="1" as="geometry">
            <Array as="points">
              <mxPoint x="500" y="520" />
              <mxPoint x="185" y="520" />
            </Array>
          </mxGeometry>
        </mxCell>
        <mxCell id="zJkR3l8xaCKapjgDyOxP-4" value="&lt;div&gt;3.1&lt;/div&gt;" style="swimlane;fontStyle=0;childLayout=stackLayout;horizontal=1;startSize=26;fillColor=none;horizontalStack=0;resizeParent=1;resizeParentMax=0;resizeLast=0;collapsible=1;marginBottom=0;whiteSpace=wrap;html=1;rounded=1;" parent="1" vertex="1">
          <mxGeometry x="425" y="390" width="140" height="90" as="geometry" />
        </mxCell>
        <mxCell id="zJkR3l8xaCKapjgDyOxP-5" value="&lt;div&gt;&amp;nbsp;Payment&lt;br&gt;&lt;/div&gt;" style="text;strokeColor=none;fillColor=none;align=center;verticalAlign=top;spacingLeft=4;spacingRight=4;overflow=hidden;rotatable=0;points=[[0,0.5],[1,0.5]];portConstraint=eastwest;whiteSpace=wrap;html=1;" parent="zJkR3l8xaCKapjgDyOxP-4" vertex="1">
          <mxGeometry y="26" width="140" height="64" as="geometry" />
        </mxCell>
        <mxCell id="Hm56MA9YWt-JWQYjMNaE-2" value="&lt;div&gt;Product Managed&lt;/div&gt;&lt;div&gt;Record&lt;br&gt;&lt;/div&gt;" style="edgeStyle=orthogonalEdgeStyle;rounded=0;orthogonalLoop=1;jettySize=auto;html=1;" parent="1" source="zJkR3l8xaCKapjgDyOxP-7" target="Hm56MA9YWt-JWQYjMNaE-1" edge="1">
          <mxGeometry relative="1" as="geometry">
            <Array as="points">
              <mxPoint x="710" y="500" />
              <mxPoint x="590" y="500" />
            </Array>
          </mxGeometry>
        </mxCell>
        <mxCell id="0khPjTOL5wcLQsYKQB6q-2" value="&lt;div&gt;Member Managed&lt;/div&gt;&lt;div&gt;Record&lt;br&gt;&lt;/div&gt;" style="edgeStyle=orthogonalEdgeStyle;rounded=0;orthogonalLoop=1;jettySize=auto;html=1;" parent="1" edge="1">
          <mxGeometry x="-0.1" relative="1" as="geometry">
            <mxPoint x="770" y="460" as="sourcePoint" />
            <mxPoint x="870" y="540" as="targetPoint" />
            <Array as="points">
              <mxPoint x="770" y="500" />
              <mxPoint x="870" y="500" />
              <mxPoint x="870" y="540" />
            </Array>
            <mxPoint as="offset" />
          </mxGeometry>
        </mxCell>
        <mxCell id="zJkR3l8xaCKapjgDyOxP-7" value="&lt;div&gt;Admin&lt;/div&gt;" style="html=1;whiteSpace=wrap;" parent="1" vertex="1">
          <mxGeometry x="690" y="410" width="110" height="50" as="geometry" />
        </mxCell>
        <mxCell id="Upi8s8O5AXfCiQG1VnSZ-6" value="Amount Purchased" style="edgeStyle=orthogonalEdgeStyle;rounded=0;orthogonalLoop=1;jettySize=auto;html=1;exitX=1;exitY=0.25;exitDx=0;exitDy=0;entryX=0.008;entryY=0.185;entryDx=0;entryDy=0;entryPerimeter=0;" parent="1" source="zJkR3l8xaCKapjgDyOxP-1" target="zJkR3l8xaCKapjgDyOxP-5" edge="1">
          <mxGeometry relative="1" as="geometry" />
        </mxCell>
        <mxCell id="Hm56MA9YWt-JWQYjMNaE-1" value="&amp;nbsp;&amp;nbsp;&amp;nbsp; Product Record" style="html=1;dashed=0;whiteSpace=wrap;shape=mxgraph.dfd.dataStoreID;align=center;spacingLeft=3;points=[[0,0],[0.5,0],[1,0],[0,0.5],[1,0.5],[0,1],[0.5,1],[1,1]];" parent="1" vertex="1">
          <mxGeometry x="565" y="540" width="140" height="30" as="geometry" />
        </mxCell>
        <mxCell id="0khPjTOL5wcLQsYKQB6q-1" value="&amp;nbsp;&amp;nbsp;&amp;nbsp; Product Record" style="html=1;dashed=0;whiteSpace=wrap;shape=mxgraph.dfd.dataStoreID;align=center;spacingLeft=3;points=[[0,0],[0.5,0],[1,0],[0,0.5],[1,0.5],[0,1],[0.5,1],[1,1]];" parent="1" vertex="1">
          <mxGeometry x="790" y="540" width="140" height="30" as="geometry" />
        </mxCell>
      </root>
    </mxGraphModel>
  </diagram>
  <diagram id="6lE6-E694tTQyDpYu1U8" name="Level 4 ( Manual Store)">
    <mxGraphModel dx="1114" dy="616" grid="1" gridSize="10" guides="1" tooltips="1" connect="1" arrows="1" fold="1" page="1" pageScale="1" pageWidth="850" pageHeight="1100" math="0" shadow="0">
      <root>
        <mxCell id="0" />
        <mxCell id="1" parent="0" />
        <mxCell id="uYGkHv231MtDPBIHv-3o-3" value="Admin" style="html=1;dashed=0;whiteSpace=wrap;" parent="1" vertex="1">
          <mxGeometry x="50" y="270" width="100" height="50" as="geometry" />
        </mxCell>
        <mxCell id="_-jUNj6Q18DvR9XGROBS-2" style="edgeStyle=orthogonalEdgeStyle;rounded=0;orthogonalLoop=1;jettySize=auto;html=1;entryX=0.5;entryY=0;entryDx=0;entryDy=0;" parent="1" source="9FlYzm3L-Niw9FdwFuEB-1" target="uYGkHv231MtDPBIHv-3o-3" edge="1">
          <mxGeometry relative="1" as="geometry">
            <mxPoint x="660" y="100" as="targetPoint" />
            <Array as="points">
              <mxPoint x="710" y="210" />
              <mxPoint x="100" y="210" />
            </Array>
          </mxGeometry>
        </mxCell>
        <mxCell id="_-jUNj6Q18DvR9XGROBS-3" value="Sorted Documents" style="edgeLabel;html=1;align=center;verticalAlign=middle;resizable=0;points=[];" parent="_-jUNj6Q18DvR9XGROBS-2" vertex="1" connectable="0">
          <mxGeometry x="-0.0401" y="1" relative="1" as="geometry">
            <mxPoint as="offset" />
          </mxGeometry>
        </mxCell>
        <mxCell id="9FlYzm3L-Niw9FdwFuEB-1" value="4.1" style="swimlane;fontStyle=0;childLayout=stackLayout;horizontal=1;startSize=26;fillColor=none;horizontalStack=0;resizeParent=1;resizeParentMax=0;resizeLast=0;collapsible=1;marginBottom=0;whiteSpace=wrap;html=1;rounded=1;" parent="1" vertex="1">
          <mxGeometry x="640" y="250" width="140" height="90" as="geometry" />
        </mxCell>
        <mxCell id="9FlYzm3L-Niw9FdwFuEB-2" value="Sort Documents" style="text;strokeColor=none;fillColor=none;align=center;verticalAlign=top;spacingLeft=4;spacingRight=4;overflow=hidden;rotatable=0;points=[[0,0.5],[1,0.5]];portConstraint=eastwest;whiteSpace=wrap;html=1;" parent="9FlYzm3L-Niw9FdwFuEB-1" vertex="1">
          <mxGeometry y="26" width="140" height="64" as="geometry" />
        </mxCell>
        <mxCell id="MAay6CMEfNQml3wIyoIC-8" value="Acquire Records" style="edgeStyle=orthogonalEdgeStyle;rounded=0;orthogonalLoop=1;jettySize=auto;html=1;exitX=0.5;exitY=1;exitDx=0;exitDy=0;entryX=0.5;entryY=0;entryDx=0;entryDy=0;" parent="1" source="9FlYzm3L-Niw9FdwFuEB-4" target="ysUQFzY5m009ouuIUF2o-1" edge="1">
          <mxGeometry relative="1" as="geometry" />
        </mxCell>
        <mxCell id="9FlYzm3L-Niw9FdwFuEB-4" value="4.1" style="swimlane;fontStyle=0;childLayout=stackLayout;horizontal=1;startSize=26;fillColor=none;horizontalStack=0;resizeParent=1;resizeParentMax=0;resizeLast=0;collapsible=1;marginBottom=0;whiteSpace=wrap;html=1;rounded=1;" parent="1" vertex="1">
          <mxGeometry x="350" y="250" width="140" height="90" as="geometry" />
        </mxCell>
        <mxCell id="9FlYzm3L-Niw9FdwFuEB-5" value="&lt;div align=&quot;center&quot;&gt;Compile Documents&lt;/div&gt;" style="text;strokeColor=none;fillColor=none;align=center;verticalAlign=top;spacingLeft=4;spacingRight=4;overflow=hidden;rotatable=0;points=[[0,0.5],[1,0.5]];portConstraint=eastwest;whiteSpace=wrap;html=1;" parent="9FlYzm3L-Niw9FdwFuEB-4" vertex="1">
          <mxGeometry y="26" width="140" height="64" as="geometry" />
        </mxCell>
        <mxCell id="ysUQFzY5m009ouuIUF2o-1" value="&lt;div align=&quot;center&quot;&gt;&amp;nbsp;&amp;nbsp;&amp;nbsp; Member Record&lt;/div&gt;" style="html=1;dashed=0;whiteSpace=wrap;shape=mxgraph.dfd.dataStoreID;align=center;spacingLeft=3;points=[[0,0],[0.5,0],[1,0],[0,0.5],[1,0.5],[0,1],[0.5,1],[1,1]];" parent="1" vertex="1">
          <mxGeometry x="355" y="410" width="130" height="30" as="geometry" />
        </mxCell>
        <mxCell id="MAay6CMEfNQml3wIyoIC-3" style="edgeStyle=orthogonalEdgeStyle;rounded=0;orthogonalLoop=1;jettySize=auto;html=1;exitX=1;exitY=0.5;exitDx=0;exitDy=0;entryX=0.012;entryY=0.29;entryDx=0;entryDy=0;entryPerimeter=0;" parent="1" source="uYGkHv231MtDPBIHv-3o-3" target="9FlYzm3L-Niw9FdwFuEB-5" edge="1">
          <mxGeometry relative="1" as="geometry" />
        </mxCell>
        <mxCell id="MAay6CMEfNQml3wIyoIC-9" value="&lt;div&gt;Registered Information&lt;/div&gt;&lt;div&gt;&amp;nbsp;Documents&lt;/div&gt;" style="edgeLabel;html=1;align=center;verticalAlign=middle;resizable=0;points=[];" parent="MAay6CMEfNQml3wIyoIC-3" vertex="1" connectable="0">
          <mxGeometry x="-0.0782" relative="1" as="geometry">
            <mxPoint as="offset" />
          </mxGeometry>
        </mxCell>
        <mxCell id="_-jUNj6Q18DvR9XGROBS-1" value="&lt;div&gt;Documents&lt;/div&gt;&lt;div&gt;Compiled&lt;br&gt;&lt;/div&gt;" style="edgeStyle=orthogonalEdgeStyle;rounded=0;orthogonalLoop=1;jettySize=auto;html=1;entryX=0.003;entryY=0.3;entryDx=0;entryDy=0;entryPerimeter=0;" parent="1" source="9FlYzm3L-Niw9FdwFuEB-4" target="9FlYzm3L-Niw9FdwFuEB-2" edge="1">
          <mxGeometry x="-0.0061" relative="1" as="geometry">
            <mxPoint as="offset" />
          </mxGeometry>
        </mxCell>
      </root>
    </mxGraphModel>
  </diagram>
  <diagram id="l3zGeIQ83unhhCivGkPK" name="Level 5 ( Manage Records)">
    <mxGraphModel dx="1311" dy="725" grid="1" gridSize="10" guides="1" tooltips="1" connect="1" arrows="1" fold="1" page="1" pageScale="1" pageWidth="850" pageHeight="1100" math="0" shadow="0">
      <root>
        <mxCell id="0" />
        <mxCell id="1" parent="0" />
        <mxCell id="YnfJ1Er7zigOJUfihL8G-1" style="edgeStyle=orthogonalEdgeStyle;rounded=0;orthogonalLoop=1;jettySize=auto;html=1;exitX=0.25;exitY=0;exitDx=0;exitDy=0;entryX=0;entryY=0.5;entryDx=0;entryDy=0;" edge="1" parent="1" source="NJ-RLdBVNXEjMfkLDDs8-1" target="YnfJ1Er7zigOJUfihL8G-2">
          <mxGeometry relative="1" as="geometry">
            <mxPoint x="120" y="20" as="targetPoint" />
            <Array as="points">
              <mxPoint x="130" y="290" />
              <mxPoint x="130" y="55" />
            </Array>
          </mxGeometry>
        </mxCell>
        <mxCell id="YnfJ1Er7zigOJUfihL8G-4" value="&lt;div&gt;Complied Managed &lt;br&gt;&lt;/div&gt;&lt;div&gt;Records&lt;br&gt;&lt;/div&gt;" style="edgeLabel;html=1;align=center;verticalAlign=middle;resizable=0;points=[];" vertex="1" connectable="0" parent="YnfJ1Er7zigOJUfihL8G-1">
          <mxGeometry x="0.3823" relative="1" as="geometry">
            <mxPoint as="offset" />
          </mxGeometry>
        </mxCell>
        <mxCell id="NJ-RLdBVNXEjMfkLDDs8-1" value="&lt;div&gt;Admin&lt;/div&gt;" style="html=1;dashed=0;whiteSpace=wrap;" parent="1" vertex="1">
          <mxGeometry x="118" y="290" width="100" height="50" as="geometry" />
        </mxCell>
        <mxCell id="1fiFuisA9kMhZ1zlt4ey-2" style="edgeStyle=orthogonalEdgeStyle;rounded=0;orthogonalLoop=1;jettySize=auto;html=1;exitX=0.993;exitY=0.611;exitDx=0;exitDy=0;entryX=0;entryY=0.5;entryDx=0;entryDy=0;exitPerimeter=0;" parent="1" source="NJ-RLdBVNXEjMfkLDDs8-3" target="IFn_Pw0gvKs8p81vNsn0-3" edge="1">
          <mxGeometry relative="1" as="geometry">
            <mxPoint x="590" y="315" as="targetPoint" />
            <Array as="points">
              <mxPoint x="509" y="356" />
            </Array>
          </mxGeometry>
        </mxCell>
        <mxCell id="IFn_Pw0gvKs8p81vNsn0-6" value="&lt;div&gt;Requested&lt;/div&gt;&lt;div&gt;Product&#39;s Data&lt;br&gt;&lt;/div&gt;" style="edgeLabel;html=1;align=center;verticalAlign=middle;resizable=0;points=[];" parent="1fiFuisA9kMhZ1zlt4ey-2" vertex="1" connectable="0">
          <mxGeometry x="-0.2234" relative="1" as="geometry">
            <mxPoint x="38" y="1" as="offset" />
          </mxGeometry>
        </mxCell>
        <mxCell id="IFn_Pw0gvKs8p81vNsn0-5" value="&lt;div&gt;Requested &lt;br&gt;&lt;/div&gt;&lt;div&gt;Member&#39;s Data&lt;/div&gt;" style="edgeStyle=orthogonalEdgeStyle;rounded=0;orthogonalLoop=1;jettySize=auto;html=1;exitX=1.003;exitY=0.067;exitDx=0;exitDy=0;exitPerimeter=0;entryX=0.003;entryY=0.547;entryDx=0;entryDy=0;entryPerimeter=0;" parent="1" target="IFn_Pw0gvKs8p81vNsn0-1" edge="1">
          <mxGeometry x="0.0874" relative="1" as="geometry">
            <mxPoint x="510.4200000000001" y="297.288" as="sourcePoint" />
            <mxPoint x="639" y="297.01000000000005" as="targetPoint" />
            <Array as="points">
              <mxPoint x="510" y="280" />
              <mxPoint x="660" y="280" />
            </Array>
            <mxPoint as="offset" />
          </mxGeometry>
        </mxCell>
        <mxCell id="VgLJdrnY-NW6ijDQh8pk-2" style="edgeStyle=orthogonalEdgeStyle;rounded=0;orthogonalLoop=1;jettySize=auto;html=1;entryX=0.5;entryY=0;entryDx=0;entryDy=0;exitX=0.48;exitY=1.005;exitDx=0;exitDy=0;exitPerimeter=0;" parent="1" source="NJ-RLdBVNXEjMfkLDDs8-3" target="VgLJdrnY-NW6ijDQh8pk-1" edge="1">
          <mxGeometry relative="1" as="geometry">
            <mxPoint x="430" y="400" as="sourcePoint" />
          </mxGeometry>
        </mxCell>
        <mxCell id="VgLJdrnY-NW6ijDQh8pk-3" value="&lt;div&gt;Requested &lt;br&gt;&lt;/div&gt;&lt;div&gt;Coach&#39;s Data&lt;/div&gt;" style="edgeLabel;html=1;align=center;verticalAlign=middle;resizable=0;points=[];" parent="VgLJdrnY-NW6ijDQh8pk-2" vertex="1" connectable="0">
          <mxGeometry x="0.1056" relative="1" as="geometry">
            <mxPoint x="-2" as="offset" />
          </mxGeometry>
        </mxCell>
        <mxCell id="mXD3f7PGPavrvpgRJRqs-4" value="&lt;div&gt;Requested &lt;br&gt;&lt;/div&gt;&lt;div&gt;Gym&#39;s Equipment &lt;br&gt;&lt;/div&gt;&lt;div&gt;Data&lt;br&gt;&lt;/div&gt;" style="edgeStyle=orthogonalEdgeStyle;rounded=0;orthogonalLoop=1;jettySize=auto;html=1;exitX=0.5;exitY=0;exitDx=0;exitDy=0;entryX=0.498;entryY=0.929;entryDx=0;entryDy=0;entryPerimeter=0;" parent="1" edge="1">
          <mxGeometry x="0.2081" relative="1" as="geometry">
            <mxPoint as="offset" />
            <mxPoint x="439" y="270" as="sourcePoint" />
            <mxPoint x="438.72" y="185.87" as="targetPoint" />
          </mxGeometry>
        </mxCell>
        <mxCell id="6KhBpjpsxK8OwsNaz17i-2" style="edgeStyle=orthogonalEdgeStyle;rounded=0;orthogonalLoop=1;jettySize=auto;html=1;entryX=0;entryY=0.5;entryDx=0;entryDy=0;" edge="1" parent="1" source="NJ-RLdBVNXEjMfkLDDs8-2" target="6KhBpjpsxK8OwsNaz17i-1">
          <mxGeometry relative="1" as="geometry">
            <Array as="points">
              <mxPoint x="560" y="319" />
              <mxPoint x="560" y="319" />
            </Array>
          </mxGeometry>
        </mxCell>
        <mxCell id="6KhBpjpsxK8OwsNaz17i-3" value="&lt;div&gt;Requested &lt;br&gt;&lt;/div&gt;&lt;div&gt;Payment&#39;s Data&lt;br&gt;&lt;/div&gt;" style="edgeLabel;html=1;align=center;verticalAlign=middle;resizable=0;points=[];" vertex="1" connectable="0" parent="6KhBpjpsxK8OwsNaz17i-2">
          <mxGeometry x="-0.08" relative="1" as="geometry">
            <mxPoint x="7" as="offset" />
          </mxGeometry>
        </mxCell>
        <mxCell id="NJ-RLdBVNXEjMfkLDDs8-2" value="&lt;div&gt;5.1&lt;/div&gt;" style="swimlane;fontStyle=0;childLayout=stackLayout;horizontal=1;startSize=26;fillColor=none;horizontalStack=0;resizeParent=1;resizeParentMax=0;resizeLast=0;collapsible=1;marginBottom=0;whiteSpace=wrap;html=1;rounded=1;" parent="1" vertex="1">
          <mxGeometry x="370" y="270" width="140" height="90" as="geometry" />
        </mxCell>
        <mxCell id="1fiFuisA9kMhZ1zlt4ey-1" value="Admin Credential" style="edgeStyle=orthogonalEdgeStyle;rounded=0;orthogonalLoop=1;jettySize=auto;html=1;exitX=1;exitY=0.5;exitDx=0;exitDy=0;entryX=0.007;entryY=0.297;entryDx=0;entryDy=0;entryPerimeter=0;" parent="1" edge="1">
          <mxGeometry x="0.0057" relative="1" as="geometry">
            <mxPoint x="218" y="316" as="sourcePoint" />
            <mxPoint x="370.98" y="316.00800000000004" as="targetPoint" />
            <mxPoint as="offset" />
          </mxGeometry>
        </mxCell>
        <mxCell id="IFn_Pw0gvKs8p81vNsn0-1" value="&lt;div align=&quot;center&quot;&gt;&amp;nbsp;&amp;nbsp;&amp;nbsp;&amp;nbsp;&amp;nbsp; Member Records&lt;br&gt;&lt;/div&gt;" style="html=1;dashed=0;whiteSpace=wrap;shape=mxgraph.dfd.dataStoreID;align=center;spacingLeft=3;points=[[0,0],[0.5,0],[1,0],[0,0.5],[1,0.5],[0,1],[0.5,1],[1,1]];" parent="1" vertex="1">
          <mxGeometry x="660" y="266" width="140" height="30" as="geometry" />
        </mxCell>
        <mxCell id="IFn_Pw0gvKs8p81vNsn0-3" value="&amp;nbsp;&amp;nbsp;&amp;nbsp;&amp;nbsp;&amp;nbsp;&amp;nbsp;&amp;nbsp;&amp;nbsp; Product Records" style="html=1;dashed=0;whiteSpace=wrap;shape=mxgraph.dfd.dataStoreID;align=left;spacingLeft=3;points=[[0,0],[0.5,0],[1,0],[0,0.5],[1,0.5],[0,1],[0.5,1],[1,1]];" parent="1" vertex="1">
          <mxGeometry x="660" y="341" width="140" height="30" as="geometry" />
        </mxCell>
        <mxCell id="Hs9EHjb3kUXl_zVHVDfw-1" value="Coach Managed Record" style="edgeStyle=orthogonalEdgeStyle;rounded=0;orthogonalLoop=1;jettySize=auto;html=1;entryX=0.75;entryY=1;entryDx=0;entryDy=0;movable=1;resizable=1;rotatable=1;deletable=1;editable=1;locked=0;connectable=1;" parent="1" edge="1">
          <mxGeometry x="-0.3264" relative="1" as="geometry">
            <mxPoint x="367" y="455" as="sourcePoint" />
            <mxPoint x="193" y="341" as="targetPoint" />
            <mxPoint as="offset" />
          </mxGeometry>
        </mxCell>
        <mxCell id="VgLJdrnY-NW6ijDQh8pk-1" value="&amp;nbsp;&amp;nbsp;&amp;nbsp;&amp;nbsp;&amp;nbsp;&amp;nbsp;&amp;nbsp;&amp;nbsp; Coach Records" style="html=1;dashed=0;whiteSpace=wrap;shape=mxgraph.dfd.dataStoreID;align=left;spacingLeft=3;points=[[0,0],[0.5,0],[1,0],[0,0.5],[1,0.5],[0,1],[0.5,1],[1,1]];" parent="1" vertex="1">
          <mxGeometry x="367" y="439" width="140" height="30" as="geometry" />
        </mxCell>
        <mxCell id="NJ-RLdBVNXEjMfkLDDs8-3" value="&lt;div&gt;Manage&lt;br&gt;&lt;/div&gt;&lt;div&gt;Records&lt;br&gt;&lt;/div&gt;" style="text;strokeColor=none;fillColor=none;align=center;verticalAlign=top;spacingLeft=4;spacingRight=4;overflow=hidden;rotatable=0;points=[[0,0.5],[1,0.5]];portConstraint=eastwest;whiteSpace=wrap;html=1;" parent="1" vertex="1">
          <mxGeometry x="370" y="296" width="140" height="64" as="geometry" />
        </mxCell>
        <mxCell id="Hs9EHjb3kUXl_zVHVDfw-2" value="Equipment Managed Record" style="edgeStyle=orthogonalEdgeStyle;rounded=0;orthogonalLoop=1;jettySize=auto;html=1;entryX=0.75;entryY=0;entryDx=0;entryDy=0;" parent="1" source="mXD3f7PGPavrvpgRJRqs-3" target="NJ-RLdBVNXEjMfkLDDs8-1" edge="1">
          <mxGeometry x="-0.3877" relative="1" as="geometry">
            <mxPoint as="offset" />
          </mxGeometry>
        </mxCell>
        <mxCell id="mXD3f7PGPavrvpgRJRqs-3" value="&lt;div align=&quot;center&quot;&gt;&amp;nbsp;&amp;nbsp;&amp;nbsp;&amp;nbsp;&amp;nbsp; Gym Equipment&amp;nbsp;&amp;nbsp;&amp;nbsp;&amp;nbsp;&amp;nbsp; Records&lt;br&gt;&lt;/div&gt;" style="html=1;dashed=0;whiteSpace=wrap;shape=mxgraph.dfd.dataStoreID;align=center;spacingLeft=3;points=[[0,0],[0.5,0],[1,0],[0,0.5],[1,0.5],[0,1],[0.5,1],[1,1]];" parent="1" vertex="1">
          <mxGeometry x="370" y="158" width="140" height="30" as="geometry" />
        </mxCell>
        <mxCell id="Hs9EHjb3kUXl_zVHVDfw-3" value="Member Managed Record" style="edgeStyle=orthogonalEdgeStyle;rounded=0;orthogonalLoop=1;jettySize=auto;html=1;entryX=0.4;entryY=-0.02;entryDx=0;entryDy=0;entryPerimeter=0;" parent="1" source="IFn_Pw0gvKs8p81vNsn0-1" target="NJ-RLdBVNXEjMfkLDDs8-1" edge="1">
          <mxGeometry relative="1" as="geometry">
            <Array as="points">
              <mxPoint x="730" y="120" />
              <mxPoint x="158" y="120" />
            </Array>
          </mxGeometry>
        </mxCell>
        <mxCell id="Hs9EHjb3kUXl_zVHVDfw-4" value="Product Managed Record" style="edgeStyle=orthogonalEdgeStyle;rounded=0;orthogonalLoop=1;jettySize=auto;html=1;entryX=0.4;entryY=1.02;entryDx=0;entryDy=0;entryPerimeter=0;" parent="1" source="IFn_Pw0gvKs8p81vNsn0-3" target="NJ-RLdBVNXEjMfkLDDs8-1" edge="1">
          <mxGeometry relative="1" as="geometry">
            <Array as="points">
              <mxPoint x="730" y="520" />
              <mxPoint x="158" y="520" />
            </Array>
          </mxGeometry>
        </mxCell>
        <mxCell id="6KhBpjpsxK8OwsNaz17i-4" style="edgeStyle=orthogonalEdgeStyle;rounded=0;orthogonalLoop=1;jettySize=auto;html=1;entryX=0.003;entryY=0.475;entryDx=0;entryDy=0;entryPerimeter=0;exitX=1;exitY=0.5;exitDx=0;exitDy=0;" edge="1" parent="1" source="6KhBpjpsxK8OwsNaz17i-1" target="NJ-RLdBVNXEjMfkLDDs8-1">
          <mxGeometry relative="1" as="geometry">
            <mxPoint x="800" y="318" as="sourcePoint" />
            <mxPoint x="118" y="314" as="targetPoint" />
            <Array as="points">
              <mxPoint x="820" y="318" />
              <mxPoint x="820" y="540" />
              <mxPoint x="98" y="540" />
              <mxPoint x="98" y="314" />
            </Array>
          </mxGeometry>
        </mxCell>
        <mxCell id="6KhBpjpsxK8OwsNaz17i-5" value="Payment Managed Record" style="edgeLabel;html=1;align=center;verticalAlign=middle;resizable=0;points=[];" vertex="1" connectable="0" parent="6KhBpjpsxK8OwsNaz17i-4">
          <mxGeometry x="0.0481" y="3" relative="1" as="geometry">
            <mxPoint y="-3" as="offset" />
          </mxGeometry>
        </mxCell>
        <mxCell id="6KhBpjpsxK8OwsNaz17i-1" value="&lt;div align=&quot;center&quot;&gt;&amp;nbsp;&amp;nbsp;&amp;nbsp;&amp;nbsp;&amp;nbsp; Payment Records&lt;br&gt;&lt;/div&gt;" style="html=1;dashed=0;whiteSpace=wrap;shape=mxgraph.dfd.dataStoreID;align=center;spacingLeft=3;points=[[0,0],[0.5,0],[1,0],[0,0.5],[1,0.5],[0,1],[0.5,1],[1,1]];" vertex="1" parent="1">
          <mxGeometry x="660" y="304" width="140" height="30" as="geometry" />
        </mxCell>
        <mxCell id="YnfJ1Er7zigOJUfihL8G-2" value="&lt;div align=&quot;center&quot;&gt;&amp;nbsp;&amp;nbsp;&amp;nbsp;&amp;nbsp;&amp;nbsp;&amp;nbsp;&amp;nbsp; All Sorted Records&lt;br&gt;&lt;/div&gt;" style="html=1;dashed=0;whiteSpace=wrap;shape=mxgraph.dfd.dataStoreID;align=center;spacingLeft=3;points=[[0,0],[0.5,0],[1,0],[0,0.5],[1,0.5],[0,1],[0.5,1],[1,1]];" vertex="1" parent="1">
          <mxGeometry x="367" y="40" width="140" height="30" as="geometry" />
        </mxCell>
      </root>
    </mxGraphModel>
  </diagram>
  <diagram id="a6SmZoKrGqRR1eTZBIgX" name="Level 6 (Coach Registration)">
    <mxGraphModel dx="1114" dy="616" grid="1" gridSize="10" guides="1" tooltips="1" connect="1" arrows="1" fold="1" page="1" pageScale="1" pageWidth="850" pageHeight="1100" math="0" shadow="0">
      <root>
        <mxCell id="0" />
        <mxCell id="1" parent="0" />
        <mxCell id="aNdpK6WgqBrPWAWCSbIw-1" value="Admin " style="html=1;dashed=0;whiteSpace=wrap;" parent="1" vertex="1">
          <mxGeometry x="100" y="350" width="100" height="50" as="geometry" />
        </mxCell>
        <mxCell id="4Jaw1SRWJ76kC8xr8qXb-1" value="&lt;div&gt;Coach New &lt;br&gt;&lt;/div&gt;&lt;div&gt;Information&lt;br&gt;&lt;/div&gt;" style="edgeStyle=orthogonalEdgeStyle;rounded=0;orthogonalLoop=1;jettySize=auto;html=1;exitX=1;exitY=0.5;exitDx=0;exitDy=0;entryX=0.007;entryY=0.297;entryDx=0;entryDy=0;entryPerimeter=0;" parent="1" source="aNdpK6WgqBrPWAWCSbIw-1" edge="1">
          <mxGeometry relative="1" as="geometry">
            <mxPoint x="350.98" y="375.00800000000004" as="targetPoint" />
          </mxGeometry>
        </mxCell>
        <mxCell id="dMRQkGLPiDAvPxZtel-j-2" value="&lt;div&gt;Registered &lt;br&gt;&lt;/div&gt;&lt;div&gt;New Coach&lt;br&gt;&lt;/div&gt;" style="edgeStyle=orthogonalEdgeStyle;rounded=0;orthogonalLoop=1;jettySize=auto;html=1;exitX=1;exitY=0.5;exitDx=0;exitDy=0;entryX=0;entryY=0.5;entryDx=0;entryDy=0;" parent="1" source="JQ83hAYIvKhdOY6tjY-O-1" target="dMRQkGLPiDAvPxZtel-j-1" edge="1">
          <mxGeometry relative="1" as="geometry">
            <mxPoint as="offset" />
          </mxGeometry>
        </mxCell>
        <mxCell id="JQ83hAYIvKhdOY6tjY-O-1" value="&lt;div&gt;6.1&lt;/div&gt;" style="swimlane;fontStyle=0;childLayout=stackLayout;horizontal=1;startSize=26;fillColor=none;horizontalStack=0;resizeParent=1;resizeParentMax=0;resizeLast=0;collapsible=1;marginBottom=0;whiteSpace=wrap;html=1;rounded=1;" parent="1" vertex="1">
          <mxGeometry x="350" y="330" width="140" height="90" as="geometry" />
        </mxCell>
        <mxCell id="JQ83hAYIvKhdOY6tjY-O-2" value="Register Coach Information" style="text;strokeColor=none;fillColor=none;align=center;verticalAlign=top;spacingLeft=4;spacingRight=4;overflow=hidden;rotatable=0;points=[[0,0.5],[1,0.5]];portConstraint=eastwest;whiteSpace=wrap;html=1;" parent="JQ83hAYIvKhdOY6tjY-O-1" vertex="1">
          <mxGeometry y="26" width="140" height="64" as="geometry" />
        </mxCell>
        <mxCell id="tm2JsMUSBPciILH_E6LG-1" value="Coach Credential" style="edgeStyle=orthogonalEdgeStyle;rounded=0;orthogonalLoop=1;jettySize=auto;html=1;entryX=1;entryY=0.5;entryDx=0;entryDy=0;" parent="1" source="dMRQkGLPiDAvPxZtel-j-1" target="bEpXzDYahJ72szJ-yhaL-1" edge="1">
          <mxGeometry x="0.1933" relative="1" as="geometry">
            <Array as="points">
              <mxPoint x="670" y="235" />
            </Array>
            <mxPoint as="offset" />
          </mxGeometry>
        </mxCell>
        <mxCell id="dMRQkGLPiDAvPxZtel-j-1" value="&amp;nbsp;&amp;nbsp;&amp;nbsp;&amp;nbsp;&amp;nbsp;&amp;nbsp;&amp;nbsp;&amp;nbsp; Coach Record" style="html=1;dashed=0;whiteSpace=wrap;shape=mxgraph.dfd.dataStoreID;align=left;spacingLeft=3;points=[[0,0],[0.5,0],[1,0],[0,0.5],[1,0.5],[0,1],[0.5,1],[1,1]];" parent="1" vertex="1">
          <mxGeometry x="604" y="360" width="116" height="30" as="geometry" />
        </mxCell>
        <mxCell id="bEpXzDYahJ72szJ-yhaL-2" value="&lt;div&gt;Coach Personal&lt;/div&gt;&lt;div&gt;Information&lt;br&gt;&lt;/div&gt;" style="edgeStyle=orthogonalEdgeStyle;rounded=0;orthogonalLoop=1;jettySize=auto;html=1;entryX=0.5;entryY=0;entryDx=0;entryDy=0;" parent="1" source="bEpXzDYahJ72szJ-yhaL-1" target="aNdpK6WgqBrPWAWCSbIw-1" edge="1">
          <mxGeometry relative="1" as="geometry" />
        </mxCell>
        <mxCell id="bEpXzDYahJ72szJ-yhaL-1" value="Coach" style="html=1;dashed=0;whiteSpace=wrap;" parent="1" vertex="1">
          <mxGeometry x="100" y="210" width="100" height="50" as="geometry" />
        </mxCell>
      </root>
    </mxGraphModel>
  </diagram>
  <diagram id="vMrO4s3JcjegWF895ywb" name="Level 7 ( Train)">
    <mxGraphModel dx="1114" dy="616" grid="1" gridSize="10" guides="1" tooltips="1" connect="1" arrows="1" fold="1" page="1" pageScale="1" pageWidth="850" pageHeight="1100" math="0" shadow="0">
      <root>
        <mxCell id="0" />
        <mxCell id="1" parent="0" />
        <mxCell id="3gSg4rPTzdXFqU2yiL4C-1" value="Coach" style="html=1;dashed=0;whiteSpace=wrap;" parent="1" vertex="1">
          <mxGeometry x="141" y="230" width="100" height="50" as="geometry" />
        </mxCell>
        <mxCell id="RJP2E7eryrXTXttJSecC-1" value="&lt;div&gt;Ticket&lt;/div&gt;&lt;div&gt;Train Access&lt;br&gt;&lt;/div&gt;" style="edgeStyle=orthogonalEdgeStyle;rounded=0;orthogonalLoop=1;jettySize=auto;html=1;" parent="1" source="3gSg4rPTzdXFqU2yiL4C-4" target="3gSg4rPTzdXFqU2yiL4C-8" edge="1">
          <mxGeometry relative="1" as="geometry" />
        </mxCell>
        <mxCell id="3gSg4rPTzdXFqU2yiL4C-4" value="&lt;div&gt;7.1&lt;/div&gt;" style="swimlane;fontStyle=0;childLayout=stackLayout;horizontal=1;startSize=30;horizontalStack=0;resizeParent=1;resizeParentMax=0;resizeLast=0;collapsible=1;marginBottom=0;whiteSpace=wrap;html=1;rounded=1;" parent="1" vertex="1">
          <mxGeometry x="375" y="205" width="140" height="100" as="geometry" />
        </mxCell>
        <mxCell id="3gSg4rPTzdXFqU2yiL4C-5" value="&lt;div&gt;Training &lt;br&gt;&lt;/div&gt;" style="text;strokeColor=none;fillColor=none;align=center;verticalAlign=middle;spacingLeft=4;spacingRight=4;overflow=hidden;points=[[0,0.5],[1,0.5]];portConstraint=eastwest;rotatable=0;whiteSpace=wrap;html=1;" parent="3gSg4rPTzdXFqU2yiL4C-4" vertex="1">
          <mxGeometry y="30" width="140" height="70" as="geometry" />
        </mxCell>
        <mxCell id="g4J7-eg8qEFneCqUhsOb-2" value="&lt;div&gt;Complete &lt;br&gt;&lt;/div&gt;&lt;div&gt;Session&lt;br&gt;&lt;/div&gt;" style="edgeStyle=orthogonalEdgeStyle;rounded=0;orthogonalLoop=1;jettySize=auto;html=1;entryX=0.5;entryY=1;entryDx=0;entryDy=0;" parent="1" source="3gSg4rPTzdXFqU2yiL4C-8" target="g4J7-eg8qEFneCqUhsOb-1" edge="1">
          <mxGeometry relative="1" as="geometry" />
        </mxCell>
        <mxCell id="3gSg4rPTzdXFqU2yiL4C-8" value="&lt;div&gt;Member&lt;/div&gt;" style="html=1;dashed=0;whiteSpace=wrap;" parent="1" vertex="1">
          <mxGeometry x="630" y="230" width="100" height="50" as="geometry" />
        </mxCell>
        <mxCell id="3gSg4rPTzdXFqU2yiL4C-9" value="Coach Credential " style="edgeStyle=orthogonalEdgeStyle;rounded=0;orthogonalLoop=1;jettySize=auto;html=1;entryX=-0.007;entryY=0.286;entryDx=0;entryDy=0;entryPerimeter=0;" parent="1" source="3gSg4rPTzdXFqU2yiL4C-1" target="3gSg4rPTzdXFqU2yiL4C-5" edge="1">
          <mxGeometry relative="1" as="geometry" />
        </mxCell>
        <mxCell id="g4J7-eg8qEFneCqUhsOb-3" style="edgeStyle=orthogonalEdgeStyle;rounded=0;orthogonalLoop=1;jettySize=auto;html=1;entryX=0.5;entryY=0;entryDx=0;entryDy=0;" parent="1" source="g4J7-eg8qEFneCqUhsOb-1" target="3gSg4rPTzdXFqU2yiL4C-1" edge="1">
          <mxGeometry relative="1" as="geometry" />
        </mxCell>
        <mxCell id="g4J7-eg8qEFneCqUhsOb-4" value="Credential Receipt" style="edgeLabel;html=1;align=center;verticalAlign=middle;resizable=0;points=[];" parent="g4J7-eg8qEFneCqUhsOb-3" vertex="1" connectable="0">
          <mxGeometry x="-0.1946" y="4" relative="1" as="geometry">
            <mxPoint y="-5" as="offset" />
          </mxGeometry>
        </mxCell>
        <mxCell id="g4J7-eg8qEFneCqUhsOb-1" value="&lt;span style=&quot;white-space: pre;&quot;&gt;&#x9;&lt;/span&gt; Coach Record" style="html=1;dashed=0;whiteSpace=wrap;shape=mxgraph.dfd.dataStoreID;align=left;spacingLeft=3;points=[[0,0],[0.5,0],[1,0],[0,0.5],[1,0.5],[0,1],[0.5,1],[1,1]];" parent="1" vertex="1">
          <mxGeometry x="615" y="120" width="130" height="30" as="geometry" />
        </mxCell>
      </root>
    </mxGraphModel>
  </diagram>
  <diagram id="s9CoTMTmF1WTMB8h3FyP" name="Level 8 ( Product)">
    <mxGraphModel dx="1114" dy="616" grid="1" gridSize="10" guides="1" tooltips="1" connect="1" arrows="1" fold="1" page="1" pageScale="1" pageWidth="850" pageHeight="1100" math="0" shadow="0">
      <root>
        <mxCell id="0" />
        <mxCell id="1" parent="0" />
        <mxCell id="o34skNcHhkYIbtj5CVax-1" value="Admin" style="html=1;dashed=0;whiteSpace=wrap;" parent="1" vertex="1">
          <mxGeometry x="111" y="210" width="100" height="50" as="geometry" />
        </mxCell>
        <mxCell id="o34skNcHhkYIbtj5CVax-2" value="8.1" style="swimlane;fontStyle=0;childLayout=stackLayout;horizontal=1;startSize=26;fillColor=none;horizontalStack=0;resizeParent=1;resizeParentMax=0;resizeLast=0;collapsible=1;marginBottom=0;whiteSpace=wrap;html=1;rounded=1;" parent="1" vertex="1">
          <mxGeometry x="360" y="190" width="140" height="90" as="geometry" />
        </mxCell>
        <mxCell id="o34skNcHhkYIbtj5CVax-3" value="Add Products" style="text;strokeColor=none;fillColor=none;align=center;verticalAlign=top;spacingLeft=4;spacingRight=4;overflow=hidden;rotatable=0;points=[[0,0.5],[1,0.5]];portConstraint=eastwest;whiteSpace=wrap;html=1;" parent="o34skNcHhkYIbtj5CVax-2" vertex="1">
          <mxGeometry y="26" width="140" height="64" as="geometry" />
        </mxCell>
        <mxCell id="Du3wHev5yOtMy9_J-NqI-8" value="Product Information" style="edgeStyle=orthogonalEdgeStyle;rounded=0;orthogonalLoop=1;jettySize=auto;html=1;exitX=1;exitY=0.5;exitDx=0;exitDy=0;entryX=0;entryY=0.299;entryDx=0;entryDy=0;entryPerimeter=0;" parent="1" source="o34skNcHhkYIbtj5CVax-1" target="o34skNcHhkYIbtj5CVax-3" edge="1">
          <mxGeometry relative="1" as="geometry" />
        </mxCell>
        <mxCell id="Du3wHev5yOtMy9_J-NqI-9" value="Added Product" style="edgeStyle=orthogonalEdgeStyle;rounded=0;orthogonalLoop=1;jettySize=auto;html=1;exitX=1;exitY=0.5;exitDx=0;exitDy=0;entryX=0.004;entryY=0.288;entryDx=0;entryDy=0;entryPerimeter=0;" parent="1" source="o34skNcHhkYIbtj5CVax-2" edge="1">
          <mxGeometry relative="1" as="geometry">
            <mxPoint x="638.5599999999997" y="234.43200000000002" as="targetPoint" />
          </mxGeometry>
        </mxCell>
        <mxCell id="BTBjF0AX9B7jc7VFoEFw-1" value="&lt;div&gt;Product Reciept&lt;/div&gt;" style="edgeStyle=orthogonalEdgeStyle;rounded=0;orthogonalLoop=1;jettySize=auto;html=1;entryX=0.5;entryY=0;entryDx=0;entryDy=0;" parent="1" source="Q2jAUix9p50jg2i1Cs7r-1" target="o34skNcHhkYIbtj5CVax-1" edge="1">
          <mxGeometry relative="1" as="geometry">
            <Array as="points">
              <mxPoint x="720" y="140" />
              <mxPoint x="161" y="140" />
            </Array>
          </mxGeometry>
        </mxCell>
        <mxCell id="Q2jAUix9p50jg2i1Cs7r-1" value="&amp;nbsp;&amp;nbsp;&amp;nbsp;&amp;nbsp;&amp;nbsp;&amp;nbsp;&amp;nbsp;&amp;nbsp; Product Inventory" style="html=1;dashed=0;whiteSpace=wrap;shape=mxgraph.dfd.dataStoreID;align=left;spacingLeft=3;points=[[0,0],[0.5,0],[1,0],[0,0.5],[1,0.5],[0,1],[0.5,1],[1,1]];" parent="1" vertex="1">
          <mxGeometry x="640" y="220" width="146" height="30" as="geometry" />
        </mxCell>
      </root>
    </mxGraphModel>
  </diagram>
  <diagram id="zX5cx807GDmAhQDH0rzG" name="Level 9 (Product Purchased)">
    <mxGraphModel dx="1114" dy="616" grid="1" gridSize="10" guides="1" tooltips="1" connect="1" arrows="1" fold="1" page="1" pageScale="1" pageWidth="850" pageHeight="1100" math="0" shadow="0">
      <root>
        <mxCell id="0" />
        <mxCell id="1" parent="0" />
        <mxCell id="ZRUVKPpUZsjhZxhe9DQF-1" value="Member" style="html=1;dashed=0;whiteSpace=wrap;" parent="1" vertex="1">
          <mxGeometry x="111" y="313" width="100" height="50" as="geometry" />
        </mxCell>
        <mxCell id="aynRBWbKcYYQJHY38JTF-1" value="&lt;div&gt;Product&amp;nbsp;&lt;/div&gt;&lt;div&gt;&amp;nbsp;Purchased&lt;br&gt;&lt;/div&gt;" style="edgeStyle=orthogonalEdgeStyle;rounded=0;orthogonalLoop=1;jettySize=auto;html=1;exitX=0;exitY=0.5;exitDx=0;exitDy=0;entryX=1.004;entryY=0.155;entryDx=0;entryDy=0;entryPerimeter=0;" parent="1" target="ZRUVKPpUZsjhZxhe9DQF-1" edge="1">
          <mxGeometry x="0.0006" relative="1" as="geometry">
            <mxPoint x="370" y="320" as="sourcePoint" />
            <mxPoint x="270" y="320" as="targetPoint" />
            <mxPoint as="offset" />
          </mxGeometry>
        </mxCell>
        <mxCell id="ZRUVKPpUZsjhZxhe9DQF-2" value="9.1" style="swimlane;fontStyle=0;childLayout=stackLayout;horizontal=1;startSize=26;fillColor=none;horizontalStack=0;resizeParent=1;resizeParentMax=0;resizeLast=0;collapsible=1;marginBottom=0;whiteSpace=wrap;html=1;rounded=1;" parent="1" vertex="1">
          <mxGeometry x="370" y="290" width="140" height="90" as="geometry" />
        </mxCell>
        <mxCell id="ZRUVKPpUZsjhZxhe9DQF-3" value="&lt;div&gt;Purchased&lt;br&gt;&lt;/div&gt;&lt;div&gt;Product &lt;br&gt;&lt;/div&gt;" style="text;strokeColor=none;fillColor=none;align=center;verticalAlign=top;spacingLeft=4;spacingRight=4;overflow=hidden;rotatable=0;points=[[0,0.5],[1,0.5]];portConstraint=eastwest;whiteSpace=wrap;html=1;" parent="ZRUVKPpUZsjhZxhe9DQF-2" vertex="1">
          <mxGeometry y="26" width="140" height="64" as="geometry" />
        </mxCell>
        <mxCell id="JScl_7xvB1ia93P10ZOp-3" value="Purchased Info" style="edgeStyle=orthogonalEdgeStyle;rounded=0;orthogonalLoop=1;jettySize=auto;html=1;" parent="1" source="WcPHfYvK3AYB3ClKl_m8-1" target="aynRBWbKcYYQJHY38JTF-2" edge="1">
          <mxGeometry relative="1" as="geometry" />
        </mxCell>
        <mxCell id="WcPHfYvK3AYB3ClKl_m8-1" value="9.2" style="swimlane;fontStyle=0;childLayout=stackLayout;horizontal=1;startSize=26;fillColor=none;horizontalStack=0;resizeParent=1;resizeParentMax=0;resizeLast=0;collapsible=1;marginBottom=0;whiteSpace=wrap;html=1;rounded=1;" parent="1" vertex="1">
          <mxGeometry x="600" y="290" width="140" height="90" as="geometry" />
        </mxCell>
        <mxCell id="WcPHfYvK3AYB3ClKl_m8-2" value="Payment" style="text;strokeColor=none;fillColor=none;align=center;verticalAlign=top;spacingLeft=4;spacingRight=4;overflow=hidden;rotatable=0;points=[[0,0.5],[1,0.5]];portConstraint=eastwest;whiteSpace=wrap;html=1;" parent="WcPHfYvK3AYB3ClKl_m8-1" vertex="1">
          <mxGeometry y="26" width="140" height="64" as="geometry" />
        </mxCell>
        <mxCell id="S_FUYnc78UO_2h7HNNHc-1" value="Product Info" style="edgeStyle=orthogonalEdgeStyle;rounded=0;orthogonalLoop=1;jettySize=auto;html=1;exitX=0.984;exitY=0.643;exitDx=0;exitDy=0;entryX=-0.005;entryY=0.308;entryDx=0;entryDy=0;entryPerimeter=0;exitPerimeter=0;" parent="1" source="ZRUVKPpUZsjhZxhe9DQF-1" edge="1">
          <mxGeometry relative="1" as="geometry">
            <mxPoint x="270" y="345" as="sourcePoint" />
            <mxPoint x="369.29999999999995" y="345.712" as="targetPoint" />
            <Array as="points">
              <mxPoint x="249" y="345" />
            </Array>
          </mxGeometry>
        </mxCell>
        <mxCell id="UapzBIyRR396OK_al6WL-1" value="&amp;nbsp;&amp;nbsp;&amp;nbsp; Product Record" style="html=1;dashed=0;whiteSpace=wrap;shape=mxgraph.dfd.dataStoreID;align=center;spacingLeft=3;points=[[0,0],[0.5,0],[1,0],[0,0.5],[1,0.5],[0,1],[0.5,1],[1,1]];" parent="1" vertex="1">
          <mxGeometry x="820" y="450" width="140" height="30" as="geometry" />
        </mxCell>
        <mxCell id="JScl_7xvB1ia93P10ZOp-4" value="&lt;div&gt;Product Managed &lt;br&gt;&lt;/div&gt;&lt;div&gt;Record&lt;br&gt;&lt;/div&gt;" style="edgeStyle=orthogonalEdgeStyle;rounded=0;orthogonalLoop=1;jettySize=auto;html=1;entryX=0.5;entryY=0;entryDx=0;entryDy=0;" parent="1" source="aynRBWbKcYYQJHY38JTF-2" target="UapzBIyRR396OK_al6WL-1" edge="1">
          <mxGeometry relative="1" as="geometry" />
        </mxCell>
        <mxCell id="Xxba_F8qh7ipNhDLBJOy-1" value="Reciept" style="edgeStyle=orthogonalEdgeStyle;rounded=0;orthogonalLoop=1;jettySize=auto;html=1;entryX=0.5;entryY=0;entryDx=0;entryDy=0;exitX=0.5;exitY=0;exitDx=0;exitDy=0;" parent="1" source="aynRBWbKcYYQJHY38JTF-2" target="ZRUVKPpUZsjhZxhe9DQF-1" edge="1">
          <mxGeometry x="0.1384" relative="1" as="geometry">
            <Array as="points">
              <mxPoint x="890" y="210" />
              <mxPoint x="161" y="210" />
            </Array>
            <mxPoint x="1" as="offset" />
          </mxGeometry>
        </mxCell>
        <mxCell id="aynRBWbKcYYQJHY38JTF-2" value="Admin" style="html=1;dashed=0;whiteSpace=wrap;" parent="1" vertex="1">
          <mxGeometry x="840" y="310" width="100" height="50" as="geometry" />
        </mxCell>
        <mxCell id="JScl_7xvB1ia93P10ZOp-2" value="Amount" style="edgeStyle=orthogonalEdgeStyle;rounded=0;orthogonalLoop=1;jettySize=auto;html=1;entryX=-0.002;entryY=0.286;entryDx=0;entryDy=0;entryPerimeter=0;" parent="1" source="ZRUVKPpUZsjhZxhe9DQF-2" target="WcPHfYvK3AYB3ClKl_m8-2" edge="1">
          <mxGeometry relative="1" as="geometry" />
        </mxCell>
      </root>
    </mxGraphModel>
  </diagram>
  <diagram id="vZ23orxCnvXBri1TCO8d" name="Level 10 ( Equipment Purchase)">
    <mxGraphModel dx="1114" dy="616" grid="1" gridSize="10" guides="1" tooltips="1" connect="1" arrows="1" fold="1" page="1" pageScale="1" pageWidth="850" pageHeight="1100" math="0" shadow="0">
      <root>
        <mxCell id="0" />
        <mxCell id="1" parent="0" />
        <mxCell id="XMQXbS2zX25QgithHaK3-1" value="Admin" style="html=1;dashed=0;whiteSpace=wrap;" parent="1" vertex="1">
          <mxGeometry x="80" y="230" width="100" height="50" as="geometry" />
        </mxCell>
        <mxCell id="XMQXbS2zX25QgithHaK3-2" value="10.1" style="swimlane;fontStyle=0;childLayout=stackLayout;horizontal=1;startSize=26;fillColor=none;horizontalStack=0;resizeParent=1;resizeParentMax=0;resizeLast=0;collapsible=1;marginBottom=0;whiteSpace=wrap;html=1;rounded=1;" parent="1" vertex="1">
          <mxGeometry x="310" y="211" width="140" height="90" as="geometry" />
        </mxCell>
        <mxCell id="XMQXbS2zX25QgithHaK3-3" value="Add &lt;br&gt;Gym Epuipment" style="text;strokeColor=none;fillColor=none;align=center;verticalAlign=top;spacingLeft=4;spacingRight=4;overflow=hidden;rotatable=0;points=[[0,0.5],[1,0.5]];portConstraint=eastwest;whiteSpace=wrap;html=1;" parent="XMQXbS2zX25QgithHaK3-2" vertex="1">
          <mxGeometry y="26" width="140" height="64" as="geometry" />
        </mxCell>
        <mxCell id="NTblh4Joc5dRuefGxfjI-1" value="Equipment Details" style="edgeStyle=orthogonalEdgeStyle;rounded=0;orthogonalLoop=1;jettySize=auto;html=1;entryX=0.007;entryY=0.281;entryDx=0;entryDy=0;entryPerimeter=0;" parent="1" source="XMQXbS2zX25QgithHaK3-1" target="XMQXbS2zX25QgithHaK3-3" edge="1">
          <mxGeometry relative="1" as="geometry" />
        </mxCell>
        <mxCell id="NTblh4Joc5dRuefGxfjI-8" value="&lt;div&gt;Saved Equipment&lt;/div&gt;&lt;div&gt;Information&lt;/div&gt;" style="edgeStyle=orthogonalEdgeStyle;rounded=0;orthogonalLoop=1;jettySize=auto;html=1;entryX=0;entryY=0.5;entryDx=0;entryDy=0;" parent="1" source="XMQXbS2zX25QgithHaK3-2" target="sDDV5CWy7WVVrk7JkCrk-1" edge="1">
          <mxGeometry x="0.0079" relative="1" as="geometry">
            <mxPoint x="560.98" y="256.072" as="targetPoint" />
            <mxPoint as="offset" />
          </mxGeometry>
        </mxCell>
        <mxCell id="udgYdTO5Qz0ab-AZZO0V-1" value="Equipment Receipt" style="edgeStyle=orthogonalEdgeStyle;rounded=0;orthogonalLoop=1;jettySize=auto;html=1;entryX=0.5;entryY=0;entryDx=0;entryDy=0;" parent="1" source="sDDV5CWy7WVVrk7JkCrk-1" target="XMQXbS2zX25QgithHaK3-1" edge="1">
          <mxGeometry relative="1" as="geometry">
            <Array as="points">
              <mxPoint x="660" y="140" />
              <mxPoint x="130" y="140" />
            </Array>
          </mxGeometry>
        </mxCell>
        <mxCell id="sDDV5CWy7WVVrk7JkCrk-1" value="&amp;nbsp;&amp;nbsp;&amp;nbsp;&amp;nbsp;&amp;nbsp;&amp;nbsp;&amp;nbsp;&amp;nbsp; Gym Equipment Inventory" style="html=1;dashed=0;whiteSpace=wrap;shape=mxgraph.dfd.dataStoreID;align=left;spacingLeft=3;points=[[0,0],[0.5,0],[1,0],[0,0.5],[1,0.5],[0,1],[0.5,1],[1,1]];" parent="1" vertex="1">
          <mxGeometry x="581" y="240" width="190" height="30" as="geometry" />
        </mxCell>
      </root>
    </mxGraphModel>
  </diagram>
</mxfile>
